<?xml version="1.0" encoding="utf-8"?>
<!-- Generator: Adobe Illustrator 15.0.2, SVG Export Plug-In . SVG Version: 6.00 Build 0)  -->
<!DOCTYPE svg PUBLIC "-//W3C//DTD SVG 1.1//EN" "http://www.w3.org/Graphics/SVG/1.1/DTD/svg11.dtd">
<svg version="1.1" id="Layer_1" xmlns="http://www.w3.org/2000/svg" xmlns:xlink="http://www.w3.org/1999/xlink" x="0px" y="0px"
	 width="216px" height="216px" viewBox="0 0 216 216" enable-background="new 0 0 216 216" xml:space="preserve">
<path fill="#0098C6" d="M201.529,162c-2.23,3.874-4.85,7.518-7.823,10.883c-2.974,3.364-6.263,6.437-9.824,9.176
	c-3.599,2.7-7.44,5.044-11.47,7c-4.03,1.956-8.246,3.493-12.589,4.588c-4.342,1.135-8.794,1.805-13.294,2
	c-4.46,0.235-8.951,0.018-13.411-0.647c-4.422-0.665-8.775-1.768-13-3.294c-4.226-1.526-8.284-3.456-12.118-5.765l0,0
	c-3.834,2.309-7.892,4.239-12.118,5.765c-4.186,1.526-8.539,2.629-13,3.294c-4.421,0.665-8.912,0.882-13.411,0.647
	c-4.461-0.195-8.893-0.865-13.236-2c-4.382-1.095-8.617-2.632-12.647-4.588c-4.03-1.956-7.851-4.3-11.412-7
	c-3.599-2.739-6.908-5.812-9.882-9.176c-2.973-3.365-5.593-7.009-7.823-10.883l0,0c4.724,8.2,10.499,15.715,17.176,22.353
	C38.324,191.03,45.839,196.805,54,201.53c8.161,4.724,16.922,8.363,26.059,10.823C89.157,214.774,98.551,216,108,216
	s18.843-1.226,27.941-3.647c9.137-2.46,17.898-6.099,26.059-10.823c8.161-4.725,15.676-10.5,22.353-17.177
	C191.03,177.715,196.805,170.2,201.529,162L201.529,162"/>
<path fill="#0098C6" d="M108,0c4.499,0,8.971,0.453,13.353,1.353c4.421,0.9,8.715,2.22,12.823,3.941
	c4.148,1.761,8.107,3.908,11.824,6.412c3.717,2.543,7.164,5.439,10.294,8.647s5.927,6.715,8.353,10.471
	c2.465,3.756,4.533,7.755,6.176,11.941c1.644,4.147,2.865,8.461,3.648,12.882c0.782,4.421,1.117,8.913,1,13.412l0,0
	c3.951,2.152,7.674,4.693,11.117,7.588c3.404,2.896,6.536,6.106,9.353,9.589c2.778,3.521,5.201,7.303,7.235,11.294
	c2.035,3.99,3.67,8.186,4.883,12.529c1.213,4.304,2.001,8.736,2.353,13.235c0.313,4.461,0.195,8.952-0.353,13.412
	s-1.553,8.833-3,13.059c-1.448,4.265-3.3,8.362-5.53,12.235l0,0c4.725-8.161,8.364-16.922,10.824-26.059
	C214.774,126.843,216,117.45,216,108c0-9.449-1.226-18.843-3.647-27.941c-2.46-9.098-6.099-17.859-10.824-26.059
	c-4.724-8.161-10.499-15.676-17.176-22.353C177.676,24.97,170.161,19.196,162,14.471s-16.922-8.344-26.059-10.765
	C126.843,1.246,117.449,0,108,0L108,0"/>
<path fill="#0098C6" d="M14.471,162c-2.231-3.873-4.082-7.97-5.53-12.235c-1.408-4.226-2.413-8.599-3-13.059
	c-0.548-4.46-0.646-8.951-0.294-13.412c0.313-4.499,1.081-8.931,2.294-13.235c1.213-4.343,2.848-8.539,4.882-12.529
	c2.035-3.991,4.478-7.773,7.295-11.294c2.777-3.483,5.91-6.693,9.353-9.589c3.403-2.895,7.107-5.436,11.058-7.588l0,0
	c-0.117-4.499,0.218-8.991,1-13.412c0.822-4.421,2.063-8.735,3.706-12.882c1.643-4.186,3.692-8.185,6.118-11.941
	c2.426-3.756,5.243-7.263,8.412-10.471c3.13-3.208,6.557-6.104,10.235-8.647c3.717-2.504,7.676-4.651,11.823-6.412
	c4.148-1.721,8.442-3.041,12.824-3.941S103.501,0,108,0l0,0c-9.449,0-18.843,1.246-27.941,3.706
	C70.922,6.127,62.161,9.746,54,14.471S38.324,24.97,31.647,31.647C24.97,38.324,19.195,45.839,14.471,54
	C9.746,62.2,6.127,70.961,3.706,80.059C1.246,89.157,0,98.551,0,108c0,9.45,1.246,18.843,3.706,27.941
	C6.127,145.078,9.746,153.839,14.471,162L14.471,162"/>
<path fill="#4DB7DD" d="M108,185.941c-3.288-1.996-6.417-4.279-9.353-6.823c-2.896-2.544-5.573-5.339-8-8.353
	c-2.427-3.014-4.592-6.222-6.471-9.588c-1.917-3.366-3.512-6.89-4.764-10.53l0,0c-2.699-2.072-5.183-4.419-7.412-7
	c-2.19-2.581-4.103-5.4-5.706-8.411c-1.603-3.012-2.865-6.166-3.765-9.412c-0.938-3.285-1.51-6.637-1.706-10l0,0
	c-3.09-3.052-5.907-6.401-8.411-10c-2.465-3.6-4.573-7.421-6.294-11.412c-1.761-3.991-3.12-8.147-4.059-12.412
	c-0.939-4.264-1.451-8.598-1.53-12.941l0,0c-5.271,2.851-10.116,6.41-14.411,10.588c-4.296,4.139-8.033,8.846-11.118,14
	c-3.085,5.115-5.458,10.633-7.059,16.412c-1.601,5.74-2.451,11.693-2.529,17.706c-0.039,5.974,0.712,11.927,2.235,17.706
	c1.523,5.779,3.817,11.336,6.824,16.529c3.006,5.194,6.685,9.96,10.941,14.177c4.217,4.217,9.003,7.856,14.235,10.823
	c5.193,2.929,10.77,5.163,16.588,6.647c5.779,1.484,11.732,2.196,17.706,2.118c6.013-0.117,11.966-1.007,17.706-2.647
	S102.885,189.065,108,185.941L108,185.941"/>
<path fill="#6ABED2" d="M175.471,69.059c-0.079,4.343-0.591,8.677-1.53,12.941c-0.939,4.265-2.278,8.421-4,12.412
	c-1.761,3.991-3.888,7.812-6.353,11.412c-2.465,3.599-5.282,6.948-8.412,10l0,0c-0.195,3.363-0.767,6.715-1.705,10
	c-0.9,3.246-2.162,6.4-3.765,9.412c-1.604,3.011-3.516,5.83-5.706,8.411s-4.655,4.928-7.353,7l0,0
	c-1.292,3.64-2.886,7.164-4.765,10.53c-1.878,3.366-4.063,6.574-6.529,9.588c-2.427,3.014-5.104,5.809-8,8.353
	c-2.936,2.544-6.065,4.827-9.353,6.823l0,0c5.115,3.124,10.613,5.537,16.353,7.177c5.779,1.64,11.732,2.53,17.706,2.647
	c5.974,0.078,11.946-0.634,17.764-2.118c5.779-1.484,11.356-3.718,16.589-6.647c5.193-2.967,9.979-6.606,14.235-10.823
	c4.256-4.217,7.915-8.983,10.882-14.177c3.007-5.193,5.301-10.75,6.824-16.529c1.523-5.779,2.274-11.732,2.235-17.706
	c-0.039-6.013-0.889-11.966-2.529-17.706c-1.601-5.779-3.974-11.297-7.059-16.412c-3.046-5.154-6.783-9.861-11.118-14
	C185.587,75.469,180.742,71.91,175.471,69.059L175.471,69.059"/>
<path fill="#88BFDF" d="M40.529,69.059c3.445-1.879,7.047-3.473,10.765-4.765c3.718-1.252,7.537-2.177,11.412-2.764
	c3.914-0.587,7.85-0.843,11.765-0.765c3.914,0.117,7.83,0.55,11.705,1.294l0,0c7.765-11.294,12.765-18.941,15-22.941l0,0l2.53-4.294
	l2.117-3.236c0.477-0.733,1.296-1.176,2.177-1.176l0,0c0.88,0,1.699,0.443,2.176,1.176l0,0l2.765,4.236l2.294,3.882
	c2.353,4.157,7.216,11.608,14.588,22.353l0,0c3.875-0.744,7.792-1.177,11.706-1.294c3.954-0.078,7.89,0.178,11.765,0.765
	c3.875,0.587,7.693,1.512,11.412,2.764c3.718,1.292,7.32,2.886,10.765,4.765l0,0c0.156-5.974-0.497-11.947-1.942-17.765
	c-1.444-5.818-3.64-11.414-6.529-16.647c-2.929-5.232-6.528-10.038-10.706-14.294c-4.178-4.295-8.924-8.013-14.118-11.059
	c-5.154-3.006-10.691-5.34-16.47-6.941C119.927,0.791,113.974,0,108,0S96.073,0.791,90.294,2.353
	c-5.779,1.601-11.316,3.935-16.471,6.941c-5.154,3.046-9.88,6.764-14.058,11.059c-4.217,4.256-7.817,9.062-10.706,14.294
	c-2.929,5.233-5.144,10.829-6.588,16.647C41.026,57.112,40.373,63.085,40.529,69.059L40.529,69.059"/>
<path fill="#39A8D4" d="M60.823,115.824c-0.117-2.35-0.078-4.689,0.118-7c0.196-2.311,0.569-4.591,1.118-6.824
	c0.548-2.272,1.256-4.493,2.117-6.647c0.862-2.154,1.884-4.238,3.059-6.235l0,0c0.039-0.039,0.079-0.079,0.118-0.118
	c0-0.039,0.019-0.078,0.059-0.117c0.039-0.04,0.059-0.079,0.059-0.118c0.039-0.039,0.078-0.078,0.117-0.118l0,0
	c7.334-10.392,13.53-19.255,18.588-26.588l0,0c-3.875-0.744-7.791-1.177-11.705-1.294c-3.915-0.078-7.851,0.178-11.765,0.765
	c-3.875,0.587-7.694,1.512-11.412,2.764c-3.718,1.292-7.32,2.886-10.765,4.765l0,0c0.079,4.343,0.591,8.677,1.53,12.941
	c0.939,4.265,2.298,8.421,4.059,12.412c1.721,3.991,3.829,7.812,6.294,11.412C54.916,109.423,57.733,112.772,60.823,115.824
	L60.823,115.824"/>
<path fill="#56B1D1" d="M148.765,89.118c1.175,1.997,2.197,4.081,3.058,6.235c0.862,2.154,1.57,4.375,2.118,6.647
	c0.548,2.233,0.922,4.513,1.118,6.824c0.196,2.311,0.235,4.65,0.117,7l0,0c3.13-3.052,5.947-6.401,8.412-10
	c2.465-3.6,4.592-7.421,6.353-11.412c1.722-3.991,3.061-8.147,4-12.412c0.939-4.264,1.451-8.598,1.53-12.941l0,0
	c-3.445-1.879-7.047-3.473-10.765-4.765c-3.719-1.252-7.537-2.177-11.412-2.764c-3.875-0.587-7.811-0.843-11.765-0.765
	c-3.914,0.117-7.831,0.55-11.706,1.294l0,0c5.059,7.333,11.275,16.196,18.648,26.588l0,0c0,0.04,0.019,0.079,0.058,0.118
	c0.04,0.039,0.059,0.078,0.059,0.118c0.039,0.039,0.079,0.078,0.118,0.117C148.706,89.039,148.725,89.079,148.765,89.118
	L148.765,89.118"/>
<path fill="#00A7C9" d="M136.647,150.647c-4.089,3.077-8.661,5.502-13.529,7.177c-4.869,1.635-9.977,2.47-15.118,2.47
	s-10.25-0.835-15.118-2.47c-4.829-1.675-9.381-4.1-13.47-7.177l0,0c1.252,3.64,2.847,7.164,4.764,10.53
	c1.879,3.366,4.044,6.574,6.471,9.588c2.427,3.014,5.104,5.809,8,8.353c2.936,2.544,6.065,4.827,9.353,6.823l0,0
	c3.288-1.996,6.417-4.279,9.353-6.823c2.896-2.544,5.573-5.339,8-8.353c2.466-3.014,4.651-6.222,6.529-9.588
	C133.761,157.811,135.355,154.287,136.647,150.647L136.647,150.647"/>
<path fill="#0098C6" d="M75.588,126.706c-1.333-0.745-2.647-1.53-3.941-2.353c-1.294-0.823-2.569-1.686-3.824-2.588
	c-1.215-0.902-2.412-1.863-3.588-2.882c-1.176-0.981-2.314-2.001-3.412-3.059l0,0c0.196,3.363,0.768,6.715,1.706,10
	c0.9,3.246,2.162,6.4,3.765,9.412c1.603,3.011,3.516,5.83,5.706,8.411c2.229,2.581,4.713,4.928,7.412,7l0,0
	c-0.667-1.92-1.255-3.863-1.765-5.823c-0.51-1.999-0.922-4.001-1.235-6c-0.314-1.999-0.549-4.001-0.706-6
	C75.588,130.786,75.549,128.744,75.588,126.706L75.588,126.706"/>
<path fill="#0099BA" d="M155.176,115.824c-0.195,3.363-0.767,6.715-1.705,10c-0.9,3.246-2.162,6.4-3.765,9.412
	c-1.604,3.011-3.516,5.83-5.706,8.411s-4.655,4.928-7.353,7l0,0c-4.089,3.077-8.661,5.502-13.529,7.177
	c-4.869,1.635-9.977,2.47-15.118,2.47s-10.25-0.835-15.118-2.47c-4.829-1.675-9.381-4.1-13.47-7.177l0,0
	c-0.667-1.92-1.255-3.863-1.765-5.823c-0.51-1.999-0.922-4.001-1.235-6c-0.314-1.999-0.549-4.001-0.706-6
	c-0.118-2.038-0.157-4.08-0.118-6.118l0,0l2.059,1.118c1.405,2.809,3.187,5.423,5.294,7.764c2.107,2.342,4.523,4.381,7.177,6.059
	c2.653,1.678,5.544,2.965,8.588,3.824c3.005,0.858,6.133,1.294,9.294,1.294s6.289-0.436,9.294-1.294
	c3.044-0.859,5.935-2.146,8.588-3.824c2.693-1.678,5.128-3.717,7.236-6.059c2.107-2.341,3.869-4.955,5.235-7.764l0,0l2.059-1.118
	c1.333-0.745,2.647-1.53,3.941-2.353c1.294-0.823,2.569-1.686,3.823-2.588c1.216-0.902,2.413-1.863,3.589-2.882
	C152.941,117.902,154.079,116.882,155.176,115.824L155.176,115.824"/>
<path fill="#0094BB" d="M140.412,126.706l-2.059,1.118c0.196-0.392,0.372-0.785,0.529-1.177c0.157-0.392,0.314-0.784,0.471-1.176
	c0.157-0.392,0.314-0.785,0.47-1.177c0.157-0.431,0.295-0.843,0.412-1.235l0,0c0.704-2.229,1.158-4.516,1.353-6.823
	c0.235-2.308,0.215-4.634-0.059-6.942c-0.234-2.307-0.727-4.574-1.47-6.764c-0.704-2.19-1.651-4.32-2.824-6.353l0,0
	c-8.392-11.883-15.294-21.883-20.706-30l0,0c1.059-0.432,2.138-0.843,3.236-1.236c1.097-0.431,2.196-0.823,3.294-1.176
	c1.137-0.314,2.274-0.628,3.412-0.941c1.097-0.275,2.215-0.53,3.352-0.765l0,0c5.059,7.333,11.275,16.196,18.648,26.588l0,0
	c0,0.04,0.019,0.079,0.058,0.118c0.04,0.039,0.059,0.078,0.059,0.118c0.039,0.039,0.079,0.078,0.118,0.117
	c0,0.039,0.019,0.079,0.059,0.118l0,0c1.175,1.997,2.197,4.081,3.058,6.235c0.862,2.154,1.57,4.375,2.118,6.647
	c0.548,2.233,0.922,4.513,1.118,6.824c0.196,2.311,0.235,4.65,0.117,7l0,0c-1.097,1.058-2.235,2.078-3.411,3.059
	c-1.176,1.019-2.373,1.98-3.589,2.882c-1.254,0.902-2.529,1.765-3.823,2.588C143.059,125.176,141.745,125.961,140.412,126.706
	L140.412,126.706"/>
<path fill="#0091C1" d="M75.588,126.706c-1.333-0.745-2.647-1.53-3.941-2.353c-1.294-0.823-2.569-1.686-3.824-2.588
	c-1.215-0.902-2.412-1.863-3.588-2.882c-1.176-0.981-2.314-2.001-3.412-3.059l0,0c-0.117-2.35-0.078-4.689,0.118-7
	c0.196-2.311,0.569-4.591,1.118-6.824c0.548-2.272,1.256-4.493,2.117-6.647c0.862-2.154,1.884-4.238,3.059-6.235l0,0
	c0.039-0.039,0.079-0.079,0.118-0.118c0-0.039,0.019-0.078,0.059-0.117c0.039-0.04,0.059-0.079,0.059-0.118
	c0.039-0.039,0.078-0.078,0.117-0.118l0,0c7.334-10.392,13.53-19.255,18.588-26.588l0,0c7.765-11.294,12.765-18.941,15-22.941l0,0
	l2.53-4.294l2.117-3.236c0.477-0.733,1.296-1.176,2.177-1.176l0,0c0.88,0,1.699,0.443,2.176,1.176l0,0l2.765,4.236l2.294,3.882
	c2.353,4.157,7.216,11.608,14.588,22.353l0,0c-1.137,0.235-2.255,0.49-3.352,0.765c-1.138,0.313-2.275,0.627-3.412,0.941
	c-1.098,0.353-2.197,0.745-3.294,1.176c-1.098,0.393-2.177,0.804-3.236,1.236l0,0C113.078,61,110.235,56.588,108,52.941l0,0
	c-2.196,3.647-5.039,8.059-8.529,13.236l0,0c-5.373,8.117-12.275,18.117-20.706,30l0,0c-1.174,2.033-2.12,4.163-2.824,6.353
	c-0.743,2.19-1.236,4.457-1.47,6.764c-0.274,2.308-0.294,4.634-0.059,6.942c0.234,2.307,0.688,4.594,1.353,6.823l0,0
	c0,0.314-0.02,0.608-0.059,0.882c0,0.314-0.02,0.628-0.059,0.942c0,0.313,0,0.627,0,0.941
	C75.608,126.098,75.588,126.392,75.588,126.706L75.588,126.706"/>
<path fill="#0094BB" d="M77.647,127.824c-0.157-0.392-0.333-0.785-0.529-1.177c-0.157-0.392-0.314-0.784-0.471-1.176
	s-0.314-0.785-0.471-1.177c-0.117-0.431-0.255-0.843-0.411-1.235l0,0c0,0.314-0.02,0.608-0.059,0.882
	c0,0.314-0.02,0.628-0.059,0.942c0,0.313,0,0.627,0,0.941c-0.039,0.274-0.059,0.568-0.059,0.882l0,0L77.647,127.824"/>
<path fill="#FFFFFF" d="M138.353,127.824c-1.366,2.809-3.128,5.423-5.235,7.764c-2.108,2.342-4.543,4.381-7.236,6.059
	c-2.653,1.678-5.544,2.965-8.588,3.824c-3.005,0.858-6.133,1.294-9.294,1.294s-6.289-0.436-9.294-1.294
	c-3.044-0.859-5.935-2.146-8.588-3.824c-2.654-1.678-5.07-3.717-7.177-6.059c-2.107-2.341-3.889-4.955-5.294-7.764l0,0
	c-0.157-0.392-0.333-0.785-0.529-1.177c-0.157-0.392-0.314-0.784-0.471-1.176s-0.314-0.785-0.471-1.177
	c-0.117-0.431-0.255-0.843-0.411-1.235l0,0c-0.665-2.229-1.119-4.516-1.353-6.823c-0.235-2.308-0.215-4.634,0.059-6.942
	c0.234-2.307,0.727-4.574,1.47-6.764c0.704-2.19,1.65-4.32,2.824-6.353l0,0c8.431-11.883,15.333-21.883,20.706-30l0,0
	c3.49-5.177,6.333-9.589,8.529-13.236l0,0c2.235,3.647,5.078,8.059,8.529,13.236l0,0c5.412,8.117,12.314,18.117,20.706,30l0,0
	c1.173,2.033,2.12,4.163,2.824,6.353c0.743,2.19,1.236,4.457,1.47,6.764c0.274,2.308,0.294,4.634,0.059,6.942
	c-0.195,2.307-0.649,4.594-1.353,6.823l0,0c-0.117,0.392-0.255,0.804-0.412,1.235c-0.156,0.392-0.313,0.785-0.47,1.177
	c-0.157,0.392-0.314,0.784-0.471,1.176C138.725,127.039,138.549,127.432,138.353,127.824L138.353,127.824"/>
</svg>
