<?xml version="1.0" encoding="utf-8"?>
<!-- Generator: Adobe Illustrator 15.0.2, SVG Export Plug-In . SVG Version: 6.00 Build 0)  -->
<!DOCTYPE svg PUBLIC "-//W3C//DTD SVG 1.1//EN" "http://www.w3.org/Graphics/SVG/1.1/DTD/svg11.dtd">
<svg version="1.1" id="Layer_1" xmlns="http://www.w3.org/2000/svg" xmlns:xlink="http://www.w3.org/1999/xlink" x="0px" y="0px"
	 width="216px" height="216px" viewBox="0 0 216 216" enable-background="new 0 0 216 216" xml:space="preserve">
<path fill="#FFFFFF" d="M148.471,88.588c0,0.039,0.02,0.078,0.059,0.118c0.039,0.039,0.059,0.078,0.059,0.117
	c0.039,0.079,0.078,0.138,0.117,0.177c0,0.039,0.02,0.078,0.059,0.117l0,0c2.802,4.748,4.733,9.964,5.706,15.412
	c1.012,5.448,1.052,11.023,0.118,16.471c-0.934,5.448-2.826,10.684-5.589,15.47c-2.724,4.826-6.287,9.106-10.529,12.647
	c-4.242,3.581-9.06,6.388-14.235,8.295c-5.215,1.868-10.71,2.823-16.236,2.823c-5.526,0-11-0.955-16.176-2.823
	c-5.215-1.907-10.052-4.714-14.294-8.295c-4.203-3.541-7.767-7.821-10.53-12.647c-2.763-4.786-4.654-10.022-5.588-15.47
	c-0.934-5.448-0.894-11.023,0.118-16.471c0.973-5.448,2.904-10.664,5.706-15.412l0,0c0.039-0.039,0.078-0.078,0.117-0.117
	c0-0.039,0.02-0.098,0.059-0.177c0.039-0.039,0.059-0.078,0.059-0.117c0.039-0.04,0.078-0.079,0.118-0.118l0,0
	c7.372-10.353,13.568-19.196,18.588-26.529l0,0c7.765-11.294,12.765-18.942,15-22.942l0,0l2.529-4.294l2.118-3.235
	c0.477-0.77,1.296-1.235,2.176-1.235l0,0c0.881,0,1.7,0.465,2.177,1.235l0,0l2.765,4.235l2.294,3.883
	c2.353,4.157,7.215,11.608,14.588,22.353l0,0C134.883,69.392,141.098,78.235,148.471,88.588L148.471,88.588"/>
<g>
	<path fill="#009BCB" d="M114.471,155.912c0,3.589-2.897,6.5-6.471,6.5c-3.573,0-6.47-2.911-6.47-6.5c0-3.59,2.897-6.5,6.47-6.5
		C111.574,149.412,114.471,152.322,114.471,155.912"/>
	<path fill="#009BCB" d="M114.471,138.882c0,3.574-2.897,6.471-6.471,6.471c-3.573,0-6.47-2.897-6.47-6.471
		c0-3.573,2.897-6.47,6.47-6.47C111.574,132.412,114.471,135.309,114.471,138.882"/>
	<path fill="#009BCB" d="M99.765,147.412c0,3.573-2.897,6.47-6.47,6.47c-3.574,0-6.471-2.897-6.471-6.47
		c0-3.574,2.897-6.471,6.471-6.471C96.868,140.941,99.765,143.838,99.765,147.412"/>
	<path fill="#009BCB" d="M129.236,147.412c0,3.573-2.91,6.47-6.5,6.47c-3.59,0-6.5-2.897-6.5-6.47c0-3.574,2.91-6.471,6.5-6.471
		C126.326,140.941,129.236,143.838,129.236,147.412"/>
	<path fill="#009BCB" d="M114.471,121.882c0,3.574-2.897,6.471-6.471,6.471c-3.573,0-6.47-2.897-6.47-6.471
		c0-3.573,2.897-6.47,6.47-6.47C111.574,115.412,114.471,118.309,114.471,121.882"/>
	<path fill="#009BCB" d="M99.765,130.412c0,3.573-2.897,6.47-6.47,6.47c-3.574,0-6.471-2.897-6.471-6.47
		c0-3.574,2.897-6.471,6.471-6.471C96.868,123.941,99.765,126.838,99.765,130.412"/>
	<path fill="#009BCB" d="M85.059,138.882c0,3.574-2.91,6.471-6.5,6.471c-3.59,0-6.5-2.897-6.5-6.471c0-3.573,2.91-6.47,6.5-6.47
		C82.149,132.412,85.059,135.309,85.059,138.882"/>
	<path fill="#009BCB" d="M143.942,138.882c0,3.574-2.897,6.471-6.471,6.471S131,142.456,131,138.882c0-3.573,2.897-6.47,6.471-6.47
		S143.942,135.309,143.942,138.882"/>
	<path fill="#009BCB" d="M129.236,130.412c0,3.573-2.91,6.47-6.5,6.47c-3.59,0-6.5-2.897-6.5-6.47c0-3.574,2.91-6.471,6.5-6.471
		C126.326,123.941,129.236,126.838,129.236,130.412"/>
	<path fill="#009BCB" d="M114.471,104.882c0,3.574-2.897,6.471-6.471,6.471c-3.573,0-6.47-2.897-6.47-6.471
		c0-3.573,2.897-6.47,6.47-6.47C111.574,98.412,114.471,101.309,114.471,104.882"/>
	<path fill="#009BCB" d="M99.765,113.382c0,3.59-2.897,6.5-6.47,6.5c-3.574,0-6.471-2.91-6.471-6.5s2.897-6.5,6.471-6.5
		C96.868,106.882,99.765,109.792,99.765,113.382"/>
	<path fill="#009BCB" d="M85.059,121.882c0,3.574-2.91,6.471-6.5,6.471c-3.59,0-6.5-2.897-6.5-6.471c0-3.573,2.91-6.47,6.5-6.47
		C82.149,115.412,85.059,118.309,85.059,121.882"/>
	<path fill="#009BCB" d="M70.295,130.412c0,3.573-2.897,6.47-6.471,6.47c-3.574,0-6.471-2.897-6.471-6.47
		c0-3.574,2.897-6.471,6.471-6.471C67.398,123.941,70.295,126.838,70.295,130.412"/>
	<path fill="#009BCB" d="M158.706,130.412c0,3.573-2.91,6.47-6.5,6.47c-3.59,0-6.5-2.897-6.5-6.47c0-3.574,2.91-6.471,6.5-6.471
		C155.796,123.941,158.706,126.838,158.706,130.412"/>
	<path fill="#009BCB" d="M143.942,121.882c0,3.574-2.897,6.471-6.471,6.471S131,125.456,131,121.882c0-3.573,2.897-6.47,6.471-6.47
		S143.942,118.309,143.942,121.882"/>
	<path fill="#009BCB" d="M129.236,113.382c0,3.59-2.91,6.5-6.5,6.5c-3.59,0-6.5-2.91-6.5-6.5s2.91-6.5,6.5-6.5
		C126.326,106.882,129.236,109.792,129.236,113.382"/>
	<path fill="#009BCB" d="M114.471,87.882c0,3.574-2.897,6.471-6.471,6.471c-3.573,0-6.47-2.897-6.47-6.471
		c0-3.573,2.897-6.47,6.47-6.47C111.574,81.412,114.471,84.309,114.471,87.882"/>
	<path fill="#009BCB" d="M99.765,96.382c0,3.59-2.897,6.5-6.47,6.5c-3.574,0-6.471-2.91-6.471-6.5s2.897-6.5,6.471-6.5
		C96.868,89.882,99.765,92.792,99.765,96.382"/>
	<path fill="#009BCB" d="M85.059,104.882c0,3.574-2.91,6.471-6.5,6.471c-3.59,0-6.5-2.897-6.5-6.471c0-3.573,2.91-6.47,6.5-6.47
		C82.149,98.412,85.059,101.309,85.059,104.882"/>
	<path fill="#009BCB" d="M70.295,113.382c0,3.59-2.897,6.5-6.471,6.5c-3.574,0-6.471-2.91-6.471-6.5s2.897-6.5,6.471-6.5
		C67.398,106.882,70.295,109.792,70.295,113.382"/>
	<path fill="#009BCB" d="M158.706,113.382c0,3.59-2.91,6.5-6.5,6.5c-3.59,0-6.5-2.91-6.5-6.5s2.91-6.5,6.5-6.5
		C155.796,106.882,158.706,109.792,158.706,113.382"/>
	<path fill="#009BCB" d="M143.942,104.882c0,3.574-2.897,6.471-6.471,6.471S131,108.456,131,104.882c0-3.573,2.897-6.47,6.471-6.47
		S143.942,101.309,143.942,104.882"/>
	<path fill="#009BCB" d="M129.236,96.382c0,3.59-2.91,6.5-6.5,6.5c-3.59,0-6.5-2.91-6.5-6.5s2.91-6.5,6.5-6.5
		C126.326,89.882,129.236,92.792,129.236,96.382"/>
	<path fill="#009BCB" d="M114.471,70.882c0,3.574-2.897,6.471-6.471,6.471c-3.573,0-6.47-2.897-6.47-6.471
		c0-3.573,2.897-6.47,6.47-6.47C111.574,64.412,114.471,67.309,114.471,70.882"/>
	<path fill="#009BCB" d="M99.765,79.353c0,3.573-2.897,6.47-6.47,6.47c-3.574,0-6.471-2.897-6.471-6.47
		c0-3.574,2.897-6.471,6.471-6.471C96.868,72.882,99.765,75.779,99.765,79.353"/>
	<path fill="#009BCB" d="M85.059,87.882c0,3.574-2.91,6.471-6.5,6.471c-3.59,0-6.5-2.897-6.5-6.471c0-3.573,2.91-6.47,6.5-6.47
		C82.149,81.412,85.059,84.309,85.059,87.882"/>
	<path fill="#009BCB" d="M70.295,96.382c0,3.59-2.897,6.5-6.471,6.5c-3.574,0-6.471-2.91-6.471-6.5s2.897-6.5,6.471-6.5
		C67.398,89.882,70.295,92.792,70.295,96.382"/>
	<path fill="#009BCB" d="M158.706,96.382c0,3.59-2.91,6.5-6.5,6.5c-3.59,0-6.5-2.91-6.5-6.5s2.91-6.5,6.5-6.5
		C155.796,89.882,158.706,92.792,158.706,96.382"/>
	<path fill="#009BCB" d="M143.942,87.882c0,3.574-2.897,6.471-6.471,6.471S131,91.456,131,87.882c0-3.573,2.897-6.47,6.471-6.47
		S143.942,84.309,143.942,87.882"/>
	<path fill="#009BCB" d="M129.236,79.353c0,3.573-2.91,6.47-6.5,6.47c-3.59,0-6.5-2.897-6.5-6.47c0-3.574,2.91-6.471,6.5-6.471
		C126.326,72.882,129.236,75.779,129.236,79.353"/>
	<path fill="#009BCB" d="M114.471,53.853c0,3.59-2.897,6.5-6.471,6.5c-3.573,0-6.47-2.91-6.47-6.5c0-3.59,2.897-6.5,6.47-6.5
		C111.574,47.353,114.471,50.263,114.471,53.853"/>
	<path fill="#009BCB" d="M99.765,62.353c0,3.573-2.897,6.47-6.47,6.47c-3.574,0-6.471-2.897-6.471-6.47
		c0-3.574,2.897-6.471,6.471-6.471C96.868,55.882,99.765,58.779,99.765,62.353"/>
	<path fill="#009BCB" d="M85.059,70.882c0,3.574-2.91,6.471-6.5,6.471c-3.59,0-6.5-2.897-6.5-6.471c0-3.573,2.91-6.47,6.5-6.47
		C82.149,64.412,85.059,67.309,85.059,70.882"/>
	<path fill="#009BCB" d="M143.942,70.882c0,3.574-2.897,6.471-6.471,6.471S131,74.456,131,70.882c0-3.573,2.897-6.47,6.471-6.47
		S143.942,67.309,143.942,70.882"/>
	<path fill="#009BCB" d="M129.236,62.353c0,3.573-2.91,6.47-6.5,6.47c-3.59,0-6.5-2.897-6.5-6.47c0-3.574,2.91-6.471,6.5-6.471
		C126.326,55.882,129.236,58.779,129.236,62.353"/>
	<path fill="#009BCB" d="M114.471,36.853c0,3.59-2.897,6.5-6.471,6.5c-3.573,0-6.47-2.91-6.47-6.5c0-3.59,2.897-6.5,6.47-6.5
		C111.574,30.353,114.471,33.263,114.471,36.853"/>
	<path fill="#009BCB" d="M99.765,45.353c0,3.573-2.897,6.47-6.47,6.47c-3.574,0-6.471-2.897-6.471-6.47
		c0-3.574,2.897-6.471,6.471-6.471C96.868,38.882,99.765,41.779,99.765,45.353"/>
	<path fill="#009BCB" d="M129.236,45.353c0,3.573-2.91,6.47-6.5,6.47c-3.59,0-6.5-2.897-6.5-6.47c0-3.574,2.91-6.471,6.5-6.471
		C126.326,38.882,129.236,41.779,129.236,45.353"/>
</g>
<path fill="#008CB8" d="M108,0c4.5,0,8.971,0.453,13.353,1.353c4.422,0.861,8.716,2.18,12.824,3.941
	c4.147,1.721,8.107,3.869,11.823,6.412c3.717,2.504,7.165,5.38,10.295,8.588c3.13,3.208,5.927,6.734,8.352,10.529
	c2.465,3.756,4.534,7.755,6.177,11.942c1.643,4.147,2.864,8.461,3.647,12.882s1.117,8.912,1,13.412l0,0
	c3.952,2.152,7.675,4.693,11.118,7.588c3.404,2.856,6.536,6.067,9.353,9.588c2.777,3.521,5.2,7.303,7.235,11.294
	c2.034,3.991,3.669,8.187,4.882,12.53c1.213,4.303,2.001,8.716,2.353,13.176c0.313,4.5,0.195,9.01-0.353,13.471
	c-0.548,4.421-1.552,8.794-3,13.059c-1.408,4.264-3.26,8.361-5.529,12.235l0,0c4.725-8.161,8.363-16.922,10.823-26.059
	C214.774,126.843,216,117.449,216,108c0-9.45-1.226-18.843-3.647-27.941c-2.46-9.137-6.098-17.898-10.823-26.059
	s-10.5-15.676-17.177-22.353C177.715,24.97,170.2,19.195,162,14.47c-8.16-4.724-16.921-8.343-26.058-10.764
	C126.844,1.246,117.45,0,108,0L108,0"/>
<polyline fill="#CBE5F3" points="108,185.941 108,160.235 106.118,160.235 104.177,160.117 102.236,159.941 100.353,159.647 
	98.471,159.294 96.589,158.882 94.765,158.353 92.883,157.765 91.118,157.117 89.353,156.412 87.589,155.588 85.883,154.765 
	84.177,153.823 82.53,152.823 80.942,151.765 79.412,150.588 77.412,149 75.53,147.294 73.706,145.529 72,143.647 70.412,141.647 
	68.942,139.588 67.589,137.47 66.295,135.235 65.177,132.941 64.177,130.647 63.295,128.235 62.53,125.823 61.883,123.353 
	61.412,120.823 61.059,118.294 60.824,115.765 60.765,114.059 60.765,112.294 60.824,110.588 60.942,108.823 61.118,107.117 
	61.353,105.353 61.706,103.647 62.059,101.941 62.53,100.294 63,98.588 63.589,96.941 64.177,95.353 64.883,93.765 65.589,92.176 
	66.412,90.588 67.236,89.117 67.589,88.588 67.589,88.588 70.295,84.765 72.883,81.117 75.353,77.588 77.765,74.176 80,70.941 
	82.177,67.823 84.236,64.882 86.177,62.059 86.177,62.059 86.177,62.059 86.177,62.059 87.589,60 88.942,58 90.236,56.117 
	91.471,54.294 92.647,52.529 93.765,50.882 94.765,49.353 95.765,47.823 96.647,46.47 97.471,45.176 98.295,43.941 99,42.765 
	99.647,41.765 100.177,40.765 100.706,39.882 101.177,39.117 103.706,34.823 105.824,31.588 106.236,31.059 106.765,30.706 
	107.353,30.47 108,30.353 108,0 105.765,0.059 103.53,0.176 101.295,0.353 99.059,0.588 96.883,0.941 94.647,1.353 92.471,1.823 
	90.295,2.353 88.118,3 86,3.706 83.883,4.47 81.824,5.294 79.765,6.176 77.765,7.176 75.765,8.176 71.883,10.47 70.059,11.706 
	68.177,13 66.412,14.353 64.647,15.765 63,17.235 61.353,18.765 59.765,20.294 58.177,21.941 56.706,23.647 55.295,25.353 
	53.942,27.117 52.589,28.941 51.353,30.823 50.177,32.706 49.059,34.647 48,36.647 47,38.647 46.059,40.647 45.236,42.765 
	44.412,44.823 43.706,46.941 43.059,49.117 42.471,51.294 42,53.47 41.53,55.647 41.177,57.882 40.942,60.117 40.706,62.294 
	40.589,64.588 40.53,66.823 40.53,69.059 38.589,70.176 36.647,71.294 34.824,72.529 33,73.882 31.177,75.235 29.471,76.647 
	27.765,78.117 26.118,79.647 24.53,81.176 23,82.823 21.53,84.529 20.118,86.235 18.706,88 17.412,89.823 16.177,91.706 15,93.588 
	13.883,95.588 12.824,97.529 11.824,99.529 10.942,101.588 10.059,103.647 9.295,105.765 8.589,107.882 7.942,110.059 
	7.353,112.235 6.883,114.412 6.471,116.588 6.118,118.823 5.824,121.059 5.647,123.235 5.471,125.47 5.471,130 5.53,132.235 
	5.706,134.47 5.942,136.706 6.295,138.882 6.647,141.117 7.118,143.294 7.647,145.47 8.295,147.647 8.942,149.765 9.706,151.882 
	10.53,153.941 11.412,156 12.353,158.059 13.412,160.059 14.471,162 15.647,163.941 16.824,165.823 18.118,167.647 19.471,169.47 
	20.883,171.176 22.295,172.882 23.824,174.529 25.412,176.176 27,177.706 28.647,179.235 30.412,180.647 32.177,182.059 
	33.942,183.353 35.824,184.647 37.706,185.823 41.589,188.059 43.589,189.059 45.647,190 47.706,190.882 49.765,191.647 
	51.883,192.412 54.059,193.059 56.236,193.647 58.412,194.176 60.589,194.588 62.824,195 65,195.294 67.236,195.529 69.471,195.647 
	71.706,195.765 73.942,195.765 76.177,195.647 78.412,195.529 80.647,195.294 82.883,195 85.118,194.647 87.295,194.235 
	89.471,193.706 91.647,193.117 93.765,192.47 95.883,191.706 98,190.941 100.059,190.059 102.118,189.117 104.118,188.117 
	106.059,187.059 "/>
<polyline fill="#CBE5F3" points="210.589,130 210.589,130 210.53,125.47 210.412,123.235 210.177,121.059 209.942,118.823 
	209.589,116.588 209.118,114.412 208.647,112.235 208.059,110.059 207.412,107.882 206.706,105.765 205.942,103.647 
	205.118,101.588 204.177,99.529 203.177,97.529 202.118,95.588 201,93.588 199.824,91.706 198.589,89.823 197.295,88 
	195.942,86.235 194.53,84.529 193,82.823 191.471,81.176 189.883,79.647 188.236,78.117 186.589,76.647 184.824,75.235 
	183.059,73.882 181.236,72.529 179.353,71.294 177.412,70.176 175.471,69.059 175.53,66.823 175.471,64.588 175.295,62.294 
	175.118,60.117 174.824,57.882 174.471,55.647 174.059,53.47 173.53,51.294 172.942,49.117 172.295,46.941 171.589,44.823 
	170.824,42.765 169.942,40.647 169,38.647 168.059,36.647 167,34.647 165.824,32.706 164.647,30.823 163.412,28.941 162.118,27.117 
	160.706,25.353 159.295,23.647 157.824,21.941 156.295,20.294 154.706,18.765 153.059,17.235 151.353,15.765 149.589,14.353 
	147.824,13 146,11.706 144.118,10.47 140.236,8.176 138.295,7.176 136.236,6.176 134.177,5.294 132.118,4.47 130,3.706 127.883,3 
	125.706,2.353 123.53,1.823 121.353,1.353 119.177,0.941 116.942,0.588 114.706,0.353 112.471,0.176 110.236,0.059 108,0 
	108,30.353 108.647,30.47 109.236,30.706 109.765,31.059 110.177,31.588 112.942,35.823 115.236,39.706 115.236,39.706 
	115.706,40.529 116.236,41.412 116.824,42.412 117.471,43.47 118.177,44.588 118.942,45.765 119.765,47.059 120.647,48.412 
	121.589,49.882 122.589,51.353 123.647,52.941 124.765,54.647 125.942,56.353 127.177,58.176 128.471,60.059 129.824,62.059 
	129.824,62.059 131.765,64.882 133.824,67.823 136,70.941 138.295,74.176 140.647,77.588 143.118,81.117 145.765,84.765 
	148.471,88.588 148.765,89.117 149.589,90.588 150.412,92.176 151.177,93.765 151.824,95.353 152.471,96.941 153,98.588 
	153.53,100.294 153.942,101.941 154.353,103.647 154.647,105.353 154.883,107.117 155.059,108.823 155.177,110.588 155.236,112.294 
	155.236,114.059 155.177,115.765 154.942,118.294 154.589,120.823 154.118,123.353 153.471,125.823 152.765,128.235 
	151.883,130.647 150.824,132.941 149.706,135.235 148.471,137.47 147.059,139.588 145.589,141.647 144,143.647 142.295,145.529 
	140.471,147.294 138.589,149 136.647,150.588 135.059,151.765 133.471,152.823 131.824,153.823 130.177,154.765 128.471,155.588 
	126.706,156.412 124.942,157.117 123.118,157.765 121.295,158.353 119.412,158.882 117.53,159.294 115.647,159.647 113.765,159.941 
	111.824,160.117 109.942,160.235 108,160.235 108,185.941 109.942,187.059 111.942,188.117 113.942,189.117 115.942,190.059 
	118,190.941 120.118,191.706 122.236,192.47 124.353,193.117 126.53,193.706 128.706,194.235 130.942,194.647 133.118,195 
	135.353,195.294 137.589,195.529 139.824,195.647 142.059,195.765 144.295,195.765 146.53,195.647 148.765,195.529 151,195.294 
	153.236,195 155.412,194.588 157.647,194.176 159.824,193.647 162,193.059 164.118,192.412 166.236,191.647 168.295,190.882 
	170.412,190 172.412,189.059 174.412,188.059 178.295,185.823 180.236,184.647 182.059,183.353 183.883,182.059 185.647,180.647 
	187.353,179.235 189,177.706 190.647,176.176 192.177,174.529 193.706,172.882 195.177,171.176 196.53,169.47 197.883,167.647 
	199.177,165.823 200.412,163.941 201.53,162 202.647,160.059 203.647,158.059 204.589,156 205.471,153.941 206.295,151.882 
	207.059,149.765 207.765,147.647 208.353,145.47 208.883,143.294 209.353,141.117 209.765,138.882 210.059,136.706 210.295,134.47 
	210.471,132.235 "/>
<path fill="#008CB8" d="M14.471,162c-2.23-3.874-4.082-7.971-5.529-12.235c-1.409-4.265-2.414-8.638-3-13.059
	c-0.548-4.461-0.647-8.971-0.295-13.471c0.313-4.46,1.082-8.873,2.295-13.176c1.212-4.343,2.847-8.539,4.882-12.53
	c2.034-3.991,4.477-7.773,7.294-11.294c2.778-3.521,5.91-6.732,9.353-9.588c3.404-2.895,7.107-5.436,11.059-7.588l0,0
	c-0.118-4.5,0.217-8.991,1-13.412c0.821-4.421,2.062-8.735,3.706-12.882c1.643-4.187,3.692-8.186,6.117-11.942
	c2.426-3.795,5.243-7.321,8.412-10.529c3.13-3.208,6.577-6.084,10.294-8.588c3.678-2.543,7.618-4.691,11.765-6.412
	c4.147-1.761,8.441-3.08,12.823-3.941C99.069,0.453,103.54,0,108,0l0,0c-9.449,0-18.843,1.246-27.941,3.706
	C70.961,6.127,62.2,9.746,54,14.47c-8.16,4.725-15.675,10.5-22.353,17.177C24.97,38.324,19.196,45.839,14.471,54
	S6.127,70.922,3.706,80.059C1.246,89.157,0,98.55,0,108c0,9.449,1.246,18.843,3.706,27.941C6.127,145.078,9.746,153.839,14.471,162
	L14.471,162"/>
<path fill="#008CB8" d="M201.53,162c-2.23,3.873-4.85,7.517-7.824,10.882c-2.973,3.365-6.263,6.438-9.823,9.177
	c-3.6,2.699-7.441,5.043-11.471,7c-4.03,1.956-8.245,3.492-12.588,4.588c-4.343,1.095-8.795,1.765-13.294,2
	c-4.46,0.235-8.952,0.018-13.412-0.647c-4.421-0.665-8.774-1.768-13-3.294c-4.225-1.526-8.283-3.457-12.118-5.765l0,0
	c-3.834,2.308-7.892,4.239-12.117,5.765c-4.187,1.526-8.54,2.629-13,3.294c-4.421,0.665-8.913,0.882-13.412,0.647
	c-4.46-0.235-8.892-0.905-13.235-2c-4.382-1.096-8.617-2.632-12.647-4.588c-4.03-1.957-7.852-4.301-11.412-7
	c-3.6-2.739-6.909-5.812-9.882-9.177c-2.974-3.365-5.594-7.009-7.824-10.882l0,0c4.725,8.161,10.499,15.676,17.176,22.353
	C38.325,191.03,45.84,196.805,54,201.529c8.2,4.725,16.961,8.344,26.059,10.765C89.157,214.754,98.551,216,108,216
	c9.45,0,18.844-1.246,27.942-3.706c9.137-2.421,17.898-6.04,26.058-10.765c8.2-4.724,15.715-10.499,22.353-17.176
	C191.03,177.676,196.805,170.161,201.53,162L201.53,162"/>
<g>
	<g>
		
			<line fill="none" stroke="#2C82A5" stroke-width="4.294" stroke-linecap="round" stroke-linejoin="round" x1="115.236" y1="39.706" x2="112.942" y2="35.823"/>
		
			<line fill="none" stroke="#2C82A5" stroke-width="4.294" stroke-linecap="round" stroke-linejoin="round" x1="112.942" y1="35.823" x2="110.177" y2="31.588"/>
		
			<line fill="none" stroke="#2C82A5" stroke-width="4.294" stroke-linecap="round" stroke-linejoin="round" x1="110.177" y1="31.588" x2="109.765" y2="31.059"/>
		
			<line fill="none" stroke="#2C82A5" stroke-width="4.294" stroke-linecap="round" stroke-linejoin="round" x1="109.765" y1="31.059" x2="109.236" y2="30.706"/>
		
			<line fill="none" stroke="#2C82A5" stroke-width="4.294" stroke-linecap="round" stroke-linejoin="round" x1="109.236" y1="30.706" x2="108.647" y2="30.47"/>
		
			<line fill="none" stroke="#2C82A5" stroke-width="4.294" stroke-linecap="round" stroke-linejoin="round" x1="108.647" y1="30.47" x2="108" y2="30.353"/>
		
			<line fill="none" stroke="#2C82A5" stroke-width="4.294" stroke-linecap="round" stroke-linejoin="round" x1="108" y1="30.353" x2="107.353" y2="30.47"/>
		
			<line fill="none" stroke="#2C82A5" stroke-width="4.294" stroke-linecap="round" stroke-linejoin="round" x1="107.353" y1="30.47" x2="106.765" y2="30.706"/>
		
			<line fill="none" stroke="#2C82A5" stroke-width="4.294" stroke-linecap="round" stroke-linejoin="round" x1="106.765" y1="30.706" x2="106.236" y2="31.059"/>
		
			<line fill="none" stroke="#2C82A5" stroke-width="4.294" stroke-linecap="round" stroke-linejoin="round" x1="106.236" y1="31.059" x2="106.059" y2="31.294"/>
		
			<line fill="none" stroke="#2C82A5" stroke-width="4.294" stroke-linecap="round" stroke-linejoin="round" x1="100.412" y1="40.529" x2="99.942" y2="41.235"/>
		
			<line fill="none" stroke="#2C82A5" stroke-width="4.294" stroke-linecap="round" stroke-linejoin="round" x1="99.942" y1="41.235" x2="99.412" y2="42.059"/>
		
			<line fill="none" stroke="#2C82A5" stroke-width="4.294" stroke-linecap="round" stroke-linejoin="round" x1="99.412" y1="42.059" x2="98.883" y2="42.941"/>
		
			<line fill="none" stroke="#2C82A5" stroke-width="4.294" stroke-linecap="round" stroke-linejoin="round" x1="98.883" y1="42.941" x2="98.295" y2="43.882"/>
		
			<line fill="none" stroke="#2C82A5" stroke-width="4.294" stroke-linecap="round" stroke-linejoin="round" x1="98.295" y1="43.882" x2="97.647" y2="44.882"/>
		
			<line fill="none" stroke="#2C82A5" stroke-width="4.294" stroke-linecap="round" stroke-linejoin="round" x1="97.647" y1="44.882" x2="97" y2="45.941"/>
		
			<line fill="none" stroke="#2C82A5" stroke-width="4.294" stroke-linecap="round" stroke-linejoin="round" x1="97" y1="45.941" x2="96.295" y2="47"/>
		
			<line fill="none" stroke="#2C82A5" stroke-width="4.294" stroke-linecap="round" stroke-linejoin="round" x1="96.295" y1="47" x2="95.53" y2="48.176"/>
		
			<line fill="none" stroke="#2C82A5" stroke-width="4.294" stroke-linecap="round" stroke-linejoin="round" x1="95.53" y1="48.176" x2="94.706" y2="49.412"/>
		
			<line fill="none" stroke="#2C82A5" stroke-width="4.294" stroke-linecap="round" stroke-linejoin="round" x1="94.706" y1="49.412" x2="93.883" y2="50.706"/>
		
			<line fill="none" stroke="#2C82A5" stroke-width="4.294" stroke-linecap="round" stroke-linejoin="round" x1="93.883" y1="50.706" x2="92.942" y2="52.059"/>
		
			<line fill="none" stroke="#2C82A5" stroke-width="4.294" stroke-linecap="round" stroke-linejoin="round" x1="92.942" y1="52.059" x2="92.589" y2="52.588"/>
		
			<line fill="none" stroke="#2C82A5" stroke-width="4.294" stroke-linecap="round" stroke-linejoin="round" x1="86.53" y1="61.529" x2="85.471" y2="63.117"/>
		
			<line fill="none" stroke="#2C82A5" stroke-width="4.294" stroke-linecap="round" stroke-linejoin="round" x1="85.471" y1="63.117" x2="84.236" y2="64.882"/>
		
			<line fill="none" stroke="#2C82A5" stroke-width="4.294" stroke-linecap="round" stroke-linejoin="round" x1="84.236" y1="64.882" x2="82.942" y2="66.765"/>
		
			<line fill="none" stroke="#2C82A5" stroke-width="4.294" stroke-linecap="round" stroke-linejoin="round" x1="82.942" y1="66.765" x2="81.589" y2="68.706"/>
		
			<line fill="none" stroke="#2C82A5" stroke-width="4.294" stroke-linecap="round" stroke-linejoin="round" x1="81.589" y1="68.706" x2="80.236" y2="70.647"/>
		
			<line fill="none" stroke="#2C82A5" stroke-width="4.294" stroke-linecap="round" stroke-linejoin="round" x1="80.236" y1="70.647" x2="78.765" y2="72.706"/>
		
			<line fill="none" stroke="#2C82A5" stroke-width="4.294" stroke-linecap="round" stroke-linejoin="round" x1="78.765" y1="72.706" x2="78.295" y2="73.353"/>
		
			<line fill="none" stroke="#2C82A5" stroke-width="4.294" stroke-linecap="round" stroke-linejoin="round" x1="72.118" y1="82.235" x2="71" y2="83.765"/>
		
			<line fill="none" stroke="#2C82A5" stroke-width="4.294" stroke-linecap="round" stroke-linejoin="round" x1="71" y1="83.765" x2="69.295" y2="86.176"/>
		
			<line fill="none" stroke="#2C82A5" stroke-width="4.294" stroke-linecap="round" stroke-linejoin="round" x1="69.295" y1="86.176" x2="67.589" y2="88.588"/>
		
			<line fill="none" stroke="#2C82A5" stroke-width="4.294" stroke-linecap="round" stroke-linejoin="round" x1="67.589" y1="88.588" x2="67.236" y2="89.117"/>
		
			<line fill="none" stroke="#2C82A5" stroke-width="4.294" stroke-linecap="round" stroke-linejoin="round" x1="67.236" y1="89.117" x2="66.236" y2="90.882"/>
		
			<line fill="none" stroke="#2C82A5" stroke-width="4.294" stroke-linecap="round" stroke-linejoin="round" x1="66.236" y1="90.882" x2="65.295" y2="92.765"/>
		
			<line fill="none" stroke="#2C82A5" stroke-width="4.294" stroke-linecap="round" stroke-linejoin="round" x1="65.295" y1="92.765" x2="64.53" y2="94.47"/>
		
			<line fill="none" stroke="#2C82A5" stroke-width="4.294" stroke-linecap="round" stroke-linejoin="round" x1="61.471" y1="104.823" x2="61.177" y2="106.588"/>
		
			<line fill="none" stroke="#2C82A5" stroke-width="4.294" stroke-linecap="round" stroke-linejoin="round" x1="61.177" y1="106.588" x2="60.942" y2="108.647"/>
		
			<line fill="none" stroke="#2C82A5" stroke-width="4.294" stroke-linecap="round" stroke-linejoin="round" x1="60.942" y1="108.647" x2="60.824" y2="110.706"/>
		
			<line fill="none" stroke="#2C82A5" stroke-width="4.294" stroke-linecap="round" stroke-linejoin="round" x1="60.824" y1="110.706" x2="60.765" y2="112.765"/>
		
			<line fill="none" stroke="#2C82A5" stroke-width="4.294" stroke-linecap="round" stroke-linejoin="round" x1="60.765" y1="112.765" x2="60.824" y2="114.823"/>
		
			<line fill="none" stroke="#2C82A5" stroke-width="4.294" stroke-linecap="round" stroke-linejoin="round" x1="60.824" y1="114.823" x2="60.942" y2="116.882"/>
		
			<line fill="none" stroke="#2C82A5" stroke-width="4.294" stroke-linecap="round" stroke-linejoin="round" x1="60.942" y1="116.882" x2="61.118" y2="118.941"/>
		
			<line fill="none" stroke="#2C82A5" stroke-width="4.294" stroke-linecap="round" stroke-linejoin="round" x1="61.118" y1="118.941" x2="61.177" y2="119.176"/>
		
			<line fill="none" stroke="#2C82A5" stroke-width="4.294" stroke-linecap="round" stroke-linejoin="round" x1="63.765" y1="129.647" x2="64.295" y2="130.941"/>
		
			<line fill="none" stroke="#2C82A5" stroke-width="4.294" stroke-linecap="round" stroke-linejoin="round" x1="64.295" y1="130.941" x2="65.118" y2="132.823"/>
		
			<line fill="none" stroke="#2C82A5" stroke-width="4.294" stroke-linecap="round" stroke-linejoin="round" x1="65.118" y1="132.823" x2="66" y2="134.706"/>
		
			<line fill="none" stroke="#2C82A5" stroke-width="4.294" stroke-linecap="round" stroke-linejoin="round" x1="66" y1="134.706" x2="67" y2="136.47"/>
		
			<line fill="none" stroke="#2C82A5" stroke-width="4.294" stroke-linecap="round" stroke-linejoin="round" x1="67" y1="136.47" x2="68.059" y2="138.294"/>
		
			<line fill="none" stroke="#2C82A5" stroke-width="4.294" stroke-linecap="round" stroke-linejoin="round" x1="68.059" y1="138.294" x2="69.236" y2="140"/>
		
			<line fill="none" stroke="#2C82A5" stroke-width="4.294" stroke-linecap="round" stroke-linejoin="round" x1="69.236" y1="140" x2="70.412" y2="141.647"/>
		
			<line fill="none" stroke="#2C82A5" stroke-width="4.294" stroke-linecap="round" stroke-linejoin="round" x1="70.412" y1="141.647" x2="70.824" y2="142.176"/>
		
			<line fill="none" stroke="#2C82A5" stroke-width="4.294" stroke-linecap="round" stroke-linejoin="round" x1="78.471" y1="149.823" x2="79.177" y2="150.412"/>
		
			<line fill="none" stroke="#2C82A5" stroke-width="4.294" stroke-linecap="round" stroke-linejoin="round" x1="79.177" y1="150.412" x2="80.824" y2="151.647"/>
		
			<line fill="none" stroke="#2C82A5" stroke-width="4.294" stroke-linecap="round" stroke-linejoin="round" x1="80.824" y1="151.647" x2="82.53" y2="152.823"/>
		
			<line fill="none" stroke="#2C82A5" stroke-width="4.294" stroke-linecap="round" stroke-linejoin="round" x1="82.53" y1="152.823" x2="84.295" y2="153.882"/>
		
			<line fill="none" stroke="#2C82A5" stroke-width="4.294" stroke-linecap="round" stroke-linejoin="round" x1="84.295" y1="153.882" x2="86.118" y2="154.882"/>
		
			<line fill="none" stroke="#2C82A5" stroke-width="4.294" stroke-linecap="round" stroke-linejoin="round" x1="86.118" y1="154.882" x2="88" y2="155.823"/>
		
			<line fill="none" stroke="#2C82A5" stroke-width="4.294" stroke-linecap="round" stroke-linejoin="round" x1="88" y1="155.823" x2="89.883" y2="156.647"/>
		
			<line fill="none" stroke="#2C82A5" stroke-width="4.294" stroke-linecap="round" stroke-linejoin="round" x1="89.883" y1="156.647" x2="90.883" y2="157.059"/>
		
			<line fill="none" stroke="#2C82A5" stroke-width="4.294" stroke-linecap="round" stroke-linejoin="round" x1="101.353" y1="159.823" x2="101.824" y2="159.882"/>
		
			<line fill="none" stroke="#2C82A5" stroke-width="4.294" stroke-linecap="round" stroke-linejoin="round" x1="101.824" y1="159.882" x2="103.883" y2="160.059"/>
		
			<line fill="none" stroke="#2C82A5" stroke-width="4.294" stroke-linecap="round" stroke-linejoin="round" x1="103.883" y1="160.059" x2="105.942" y2="160.235"/>
		
			<line fill="none" stroke="#2C82A5" stroke-width="4.294" stroke-linecap="round" stroke-linejoin="round" x1="105.942" y1="160.235" x2="108" y2="160.235"/>
		
			<line fill="none" stroke="#2C82A5" stroke-width="4.294" stroke-linecap="round" stroke-linejoin="round" x1="108" y1="160.235" x2="110.059" y2="160.235"/>
		
			<line fill="none" stroke="#2C82A5" stroke-width="4.294" stroke-linecap="round" stroke-linejoin="round" x1="110.059" y1="160.235" x2="112.118" y2="160.059"/>
		
			<line fill="none" stroke="#2C82A5" stroke-width="4.294" stroke-linecap="round" stroke-linejoin="round" x1="112.118" y1="160.059" x2="114.177" y2="159.882"/>
		
			<line fill="none" stroke="#2C82A5" stroke-width="4.294" stroke-linecap="round" stroke-linejoin="round" x1="114.177" y1="159.882" x2="115.706" y2="159.647"/>
		
			<line fill="none" stroke="#2C82A5" stroke-width="4.294" stroke-linecap="round" stroke-linejoin="round" x1="126.118" y1="156.706" x2="126.177" y2="156.647"/>
		
			<line fill="none" stroke="#2C82A5" stroke-width="4.294" stroke-linecap="round" stroke-linejoin="round" x1="126.177" y1="156.647" x2="128.059" y2="155.823"/>
		
			<line fill="none" stroke="#2C82A5" stroke-width="4.294" stroke-linecap="round" stroke-linejoin="round" x1="128.059" y1="155.823" x2="129.883" y2="154.882"/>
		
			<line fill="none" stroke="#2C82A5" stroke-width="4.294" stroke-linecap="round" stroke-linejoin="round" x1="129.883" y1="154.882" x2="131.706" y2="153.882"/>
		
			<line fill="none" stroke="#2C82A5" stroke-width="4.294" stroke-linecap="round" stroke-linejoin="round" x1="131.706" y1="153.882" x2="133.471" y2="152.823"/>
		
			<line fill="none" stroke="#2C82A5" stroke-width="4.294" stroke-linecap="round" stroke-linejoin="round" x1="133.471" y1="152.823" x2="135.177" y2="151.647"/>
		
			<line fill="none" stroke="#2C82A5" stroke-width="4.294" stroke-linecap="round" stroke-linejoin="round" x1="135.177" y1="151.647" x2="136.883" y2="150.412"/>
		
			<line fill="none" stroke="#2C82A5" stroke-width="4.294" stroke-linecap="round" stroke-linejoin="round" x1="136.883" y1="150.412" x2="138.353" y2="149.176"/>
		
			<line fill="none" stroke="#2C82A5" stroke-width="4.294" stroke-linecap="round" stroke-linejoin="round" x1="145.824" y1="141.353" x2="146.824" y2="140"/>
		
			<line fill="none" stroke="#2C82A5" stroke-width="4.294" stroke-linecap="round" stroke-linejoin="round" x1="146.824" y1="140" x2="147.942" y2="138.294"/>
		
			<line fill="none" stroke="#2C82A5" stroke-width="4.294" stroke-linecap="round" stroke-linejoin="round" x1="147.942" y1="138.294" x2="149" y2="136.47"/>
		
			<line fill="none" stroke="#2C82A5" stroke-width="4.294" stroke-linecap="round" stroke-linejoin="round" x1="149" y1="136.47" x2="150" y2="134.706"/>
		
			<line fill="none" stroke="#2C82A5" stroke-width="4.294" stroke-linecap="round" stroke-linejoin="round" x1="150" y1="134.706" x2="150.883" y2="132.823"/>
		
			<line fill="none" stroke="#2C82A5" stroke-width="4.294" stroke-linecap="round" stroke-linejoin="round" x1="150.883" y1="132.823" x2="151.706" y2="130.941"/>
		
			<line fill="none" stroke="#2C82A5" stroke-width="4.294" stroke-linecap="round" stroke-linejoin="round" x1="151.706" y1="130.941" x2="152.471" y2="129"/>
		
			<line fill="none" stroke="#2C82A5" stroke-width="4.294" stroke-linecap="round" stroke-linejoin="round" x1="152.471" y1="129" x2="152.589" y2="128.706"/>
		
			<line fill="none" stroke="#2C82A5" stroke-width="4.294" stroke-linecap="round" stroke-linejoin="round" x1="154.942" y1="118.176" x2="155.118" y2="116.882"/>
		
			<line fill="none" stroke="#2C82A5" stroke-width="4.294" stroke-linecap="round" stroke-linejoin="round" x1="155.118" y1="116.882" x2="155.236" y2="114.823"/>
		
			<line fill="none" stroke="#2C82A5" stroke-width="4.294" stroke-linecap="round" stroke-linejoin="round" x1="155.236" y1="114.823" x2="155.236" y2="112.765"/>
		
			<line fill="none" stroke="#2C82A5" stroke-width="4.294" stroke-linecap="round" stroke-linejoin="round" x1="155.236" y1="112.765" x2="155.177" y2="110.706"/>
		
			<line fill="none" stroke="#2C82A5" stroke-width="4.294" stroke-linecap="round" stroke-linejoin="round" x1="155.177" y1="110.706" x2="155.059" y2="108.647"/>
		
			<line fill="none" stroke="#2C82A5" stroke-width="4.294" stroke-linecap="round" stroke-linejoin="round" x1="155.059" y1="108.647" x2="154.824" y2="106.588"/>
		
			<line fill="none" stroke="#2C82A5" stroke-width="4.294" stroke-linecap="round" stroke-linejoin="round" x1="154.824" y1="106.588" x2="154.471" y2="104.529"/>
		
			<line fill="none" stroke="#2C82A5" stroke-width="4.294" stroke-linecap="round" stroke-linejoin="round" x1="154.471" y1="104.529" x2="154.353" y2="103.823"/>
		
			<line fill="none" stroke="#2C82A5" stroke-width="4.294" stroke-linecap="round" stroke-linejoin="round" x1="151.059" y1="93.529" x2="150.706" y2="92.765"/>
		
			<line fill="none" stroke="#2C82A5" stroke-width="4.294" stroke-linecap="round" stroke-linejoin="round" x1="150.706" y1="92.765" x2="149.765" y2="90.882"/>
		
			<line fill="none" stroke="#2C82A5" stroke-width="4.294" stroke-linecap="round" stroke-linejoin="round" x1="149.765" y1="90.882" x2="148.765" y2="89.117"/>
		
			<line fill="none" stroke="#2C82A5" stroke-width="4.294" stroke-linecap="round" stroke-linejoin="round" x1="148.765" y1="89.117" x2="148.471" y2="88.588"/>
		
			<line fill="none" stroke="#2C82A5" stroke-width="4.294" stroke-linecap="round" stroke-linejoin="round" x1="148.471" y1="88.588" x2="146.765" y2="86.235"/>
		
			<line fill="none" stroke="#2C82A5" stroke-width="4.294" stroke-linecap="round" stroke-linejoin="round" x1="146.765" y1="86.235" x2="145.118" y2="83.941"/>
		
			<line fill="none" stroke="#2C82A5" stroke-width="4.294" stroke-linecap="round" stroke-linejoin="round" x1="145.118" y1="83.941" x2="143.53" y2="81.647"/>
		
			<line fill="none" stroke="#2C82A5" stroke-width="4.294" stroke-linecap="round" stroke-linejoin="round" x1="143.53" y1="81.647" x2="143.353" y2="81.412"/>
		
			<line fill="none" stroke="#2C82A5" stroke-width="4.294" stroke-linecap="round" stroke-linejoin="round" x1="137.118" y1="72.529" x2="136.177" y2="71.176"/>
		
			<line fill="none" stroke="#2C82A5" stroke-width="4.294" stroke-linecap="round" stroke-linejoin="round" x1="136.177" y1="71.176" x2="134.824" y2="69.235"/>
		
			<line fill="none" stroke="#2C82A5" stroke-width="4.294" stroke-linecap="round" stroke-linejoin="round" x1="134.824" y1="69.235" x2="133.471" y2="67.353"/>
		
			<line fill="none" stroke="#2C82A5" stroke-width="4.294" stroke-linecap="round" stroke-linejoin="round" x1="133.471" y1="67.353" x2="132.236" y2="65.529"/>
		
			<line fill="none" stroke="#2C82A5" stroke-width="4.294" stroke-linecap="round" stroke-linejoin="round" x1="132.236" y1="65.529" x2="131" y2="63.706"/>
		
			<line fill="none" stroke="#2C82A5" stroke-width="4.294" stroke-linecap="round" stroke-linejoin="round" x1="131" y1="63.706" x2="129.824" y2="62"/>
		
			<line fill="none" stroke="#2C82A5" stroke-width="4.294" stroke-linecap="round" stroke-linejoin="round" x1="129.824" y1="62" x2="128.883" y2="60.706"/>
		
			<line fill="none" stroke="#2C82A5" stroke-width="4.294" stroke-linecap="round" stroke-linejoin="round" x1="122.824" y1="51.706" x2="122.706" y2="51.529"/>
		
			<line fill="none" stroke="#2C82A5" stroke-width="4.294" stroke-linecap="round" stroke-linejoin="round" x1="122.706" y1="51.529" x2="121.824" y2="50.235"/>
		
			<line fill="none" stroke="#2C82A5" stroke-width="4.294" stroke-linecap="round" stroke-linejoin="round" x1="121.824" y1="50.235" x2="121.059" y2="49"/>
		
			<line fill="none" stroke="#2C82A5" stroke-width="4.294" stroke-linecap="round" stroke-linejoin="round" x1="121.059" y1="49" x2="120.295" y2="47.823"/>
		
			<line fill="none" stroke="#2C82A5" stroke-width="4.294" stroke-linecap="round" stroke-linejoin="round" x1="120.295" y1="47.823" x2="119.53" y2="46.706"/>
		
			<line fill="none" stroke="#2C82A5" stroke-width="4.294" stroke-linecap="round" stroke-linejoin="round" x1="119.53" y1="46.706" x2="118.883" y2="45.647"/>
		
			<line fill="none" stroke="#2C82A5" stroke-width="4.294" stroke-linecap="round" stroke-linejoin="round" x1="118.883" y1="45.647" x2="118.236" y2="44.647"/>
		
			<line fill="none" stroke="#2C82A5" stroke-width="4.294" stroke-linecap="round" stroke-linejoin="round" x1="118.236" y1="44.647" x2="117.589" y2="43.647"/>
		
			<line fill="none" stroke="#2C82A5" stroke-width="4.294" stroke-linecap="round" stroke-linejoin="round" x1="117.589" y1="43.647" x2="117.059" y2="42.765"/>
		
			<line fill="none" stroke="#2C82A5" stroke-width="4.294" stroke-linecap="round" stroke-linejoin="round" x1="117.059" y1="42.765" x2="116.53" y2="41.941"/>
		
			<line fill="none" stroke="#2C82A5" stroke-width="4.294" stroke-linecap="round" stroke-linejoin="round" x1="116.53" y1="41.941" x2="116.059" y2="41.117"/>
		
			<line fill="none" stroke="#2C82A5" stroke-width="4.294" stroke-linecap="round" stroke-linejoin="round" x1="116.059" y1="41.117" x2="115.589" y2="40.412"/>
		
			<line fill="none" stroke="#2C82A5" stroke-width="4.294" stroke-linecap="round" stroke-linejoin="round" x1="115.589" y1="40.412" x2="115.236" y2="39.706"/>
	</g>
</g>
</svg>
