<?xml version="1.0" encoding="utf-8"?>
<!-- Generator: Adobe Illustrator 15.0.2, SVG Export Plug-In . SVG Version: 6.00 Build 0)  -->
<!DOCTYPE svg PUBLIC "-//W3C//DTD SVG 1.1//EN" "http://www.w3.org/Graphics/SVG/1.1/DTD/svg11.dtd">
<svg version="1.1" id="Layer_1" xmlns="http://www.w3.org/2000/svg" xmlns:xlink="http://www.w3.org/1999/xlink" x="0px" y="0px"
	 width="220.294px" height="220.235px" viewBox="0 0 220.294 220.235" enable-background="new 0 0 220.294 220.235"
	 xml:space="preserve">
<path fill="#0093BD" d="M110.147,2.147c4.5,0,8.971,0.453,13.353,1.353c4.422,0.861,8.716,2.181,12.824,3.941
	c4.147,1.722,8.107,3.869,11.823,6.412c3.717,2.504,7.165,5.38,10.295,8.588c3.13,3.209,5.927,6.735,8.352,10.53
	c2.465,3.756,4.534,7.754,6.177,11.941c1.643,4.147,2.864,8.461,3.647,12.882s1.117,8.913,1,13.412l0,0
	c3.952,2.152,7.675,4.693,11.118,7.588c3.404,2.856,6.536,6.067,9.353,9.588c2.777,3.522,5.2,7.304,7.235,11.295
	c2.034,3.99,3.669,8.186,4.882,12.529c1.213,4.304,2.001,8.716,2.353,13.176c0.313,4.5,0.195,9.011-0.353,13.471
	c-0.548,4.421-1.552,8.794-3,13.059c-1.408,4.265-3.26,8.362-5.529,12.235l0,0c4.725-8.161,8.363-16.922,10.823-26.059
	c2.421-9.098,3.647-18.491,3.647-27.941c0-9.449-1.226-18.843-3.647-27.941c-2.46-9.137-6.098-17.898-10.823-26.059
	s-10.5-15.676-17.177-22.353c-6.638-6.677-14.153-12.452-22.353-17.176c-8.16-4.725-16.921-8.344-26.058-10.765
	C128.991,3.393,119.597,2.147,110.147,2.147L110.147,2.147"/>
<path fill="#7BBFCE" d="M138.794,152.735c-1.291,3.68-2.885,7.223-4.764,10.589c-1.879,3.366-4.064,6.574-6.53,9.588
	c-2.426,2.975-5.103,5.75-8,8.294c-2.896,2.544-6.026,4.847-9.353,6.882l0,0c5.116,3.085,10.613,5.498,16.353,7.177
	c5.779,1.64,11.732,2.53,17.706,2.647c5.974,0.078,11.947-0.634,17.765-2.118c5.779-1.484,11.356-3.738,16.588-6.706
	c5.193-2.928,9.979-6.547,14.235-10.764c4.257-4.217,7.915-8.984,10.883-14.177c3.006-5.193,5.301-10.75,6.823-16.529
	c1.523-5.779,2.275-11.732,2.236-17.706c-0.039-6.013-0.89-11.966-2.53-17.706c-1.601-5.779-3.974-11.316-7.059-16.471
	c-3.045-5.115-6.783-9.802-11.117-13.941c-4.295-4.178-9.141-7.738-14.412-10.588l0,0c-0.078,4.343-0.59,8.677-1.529,12.941
	c-0.939,4.265-2.279,8.421-4,12.412c-1.761,3.991-3.888,7.812-6.353,11.412c-2.465,3.599-5.282,6.928-8.412,9.941l0,0
	c-0.196,3.402-0.767,6.774-1.706,10.059c-0.899,3.246-2.161,6.4-3.765,9.411c-1.603,3.012-3.516,5.831-5.706,8.412
	C143.957,148.375,141.493,150.702,138.794,152.735L138.794,152.735"/>
<path fill="#66B8DA" d="M62.971,117.912c-3.091-3.013-5.908-6.342-8.412-9.941c-2.465-3.6-4.572-7.421-6.294-11.412
	c-1.761-3.991-3.12-8.147-4.059-12.412c-0.9-4.264-1.412-8.598-1.529-12.941l0,0c-5.233,2.85-10.078,6.41-14.412,10.588
	c-4.295,4.139-8.033,8.826-11.118,13.941c-3.084,5.155-5.457,10.692-7.058,16.471c-1.601,5.74-2.452,11.693-2.53,17.706
	c-0.039,5.974,0.713,11.927,2.235,17.706c1.562,5.779,3.856,11.336,6.824,16.529c3.007,5.193,6.685,9.96,10.941,14.177
	c4.217,4.217,9.003,7.836,14.235,10.764c5.194,2.968,10.771,5.222,16.589,6.706c5.779,1.484,11.731,2.196,17.706,2.118
	c6.013-0.117,11.966-1.007,17.705-2.647c5.74-1.679,11.238-4.092,16.353-7.177l0,0c-3.287-2.035-6.417-4.338-9.353-6.882
	c-2.896-2.544-5.573-5.319-8-8.294c-2.426-3.014-4.591-6.222-6.47-9.588c-1.918-3.366-3.512-6.909-4.765-10.589l0,0
	c-2.698-2.033-5.182-4.36-7.412-6.941c-2.19-2.581-4.102-5.4-5.705-8.412c-1.604-3.011-2.866-6.165-3.765-9.411
	C63.738,124.686,63.166,121.314,62.971,117.912L62.971,117.912"/>
<path fill="#39AAC3" d="M138.794,152.735c-4.089,3.116-8.661,5.541-13.529,7.177c-4.868,1.636-9.977,2.47-15.118,2.47
	c-5.14,0-10.249-0.834-15.117-2.47c-4.829-1.636-9.382-4.061-13.471-7.177l0,0c1.253,3.68,2.847,7.223,4.765,10.589
	c1.879,3.366,4.044,6.574,6.47,9.588c2.427,2.975,5.104,5.75,8,8.294c2.936,2.544,6.066,4.847,9.353,6.882l0,0
	c3.327-2.035,6.457-4.338,9.353-6.882c2.897-2.544,5.574-5.319,8-8.294c2.466-3.014,4.651-6.222,6.53-9.588
	C135.909,159.958,137.503,156.415,138.794,152.735L138.794,152.735"/>
<polyline fill="#008CB8" points="110.147,162.382 110.147,148.912 107.794,148.853 105.442,148.559 103.147,148.147 
	100.853,147.618 98.618,146.853 96.442,145.971 94.324,144.971 92.265,143.794 90.324,142.441 88.442,141.03 86.736,139.441 
	85.089,137.735 83.559,135.912 82.147,134.03 80.912,132.03 79.794,129.971 79.794,129.971 79.794,129.971 78.794,127.618 
	77.912,125.206 77.442,123.5 77.089,121.853 76.794,120.088 76.559,118.382 76.442,116.677 76.383,114.912 76.442,113.206 
	76.618,111.441 76.853,109.735 77.147,108.03 77.559,106.324 78.089,104.677 78.677,103.03 79.324,101.441 80.089,99.853 
	80.912,98.324 80.912,98.324 83.971,93.971 86.971,89.794 89.736,85.735 92.383,81.912 94.912,78.265 97.324,74.794 99.559,71.5 
	101.618,68.324 101.618,68.324 102.912,66.441 104.147,64.559 105.265,62.794 106.383,61.147 107.383,59.5 108.383,57.971 
	109.324,56.5 110.147,55.088 110.147,32.5 109.5,32.618 108.912,32.853 108.383,33.206 107.971,33.735 105.853,36.971 
	103.324,41.265 103.324,41.265 102.853,42.03 102.324,42.912 101.794,43.912 101.147,44.912 100.442,46.088 99.618,47.324 
	98.794,48.618 97.912,49.971 96.912,51.5 95.912,53.03 94.794,54.677 93.618,56.441 92.383,58.265 91.089,60.147 89.736,62.147 
	88.324,64.206 88.324,64.206 86.383,67.03 84.324,69.971 82.147,73.088 79.912,76.324 77.5,79.735 75.03,83.265 72.442,86.912 
	69.736,90.735 69.383,91.265 68.559,92.735 67.736,94.324 67.03,95.912 66.324,97.5 65.736,99.088 65.147,100.735 64.677,102.441 
	64.206,104.088 63.853,105.794 63.5,107.5 63.265,109.265 63.089,110.971 62.971,112.735 62.912,114.441 62.912,116.206 
	62.971,117.912 62.971,117.912 62.971,117.912 63.206,120.441 63.559,122.971 64.03,125.5 64.677,127.971 65.442,130.382 
	66.324,132.794 67.324,135.088 68.442,137.382 69.736,139.618 71.089,141.735 72.559,143.794 74.147,145.794 75.853,147.677 
	77.677,149.441 79.559,151.147 81.559,152.735 83.089,153.912 84.677,154.971 86.324,155.971 88.03,156.912 89.736,157.735 
	91.5,158.559 93.265,159.265 95.03,159.912 96.912,160.5 98.736,161.03 100.618,161.441 102.5,161.794 104.383,162.088 
	106.324,162.265 108.265,162.382 "/>
<polyline fill="#008CB8" points="157.383,116.206 157.383,114.441 157.324,112.735 157.206,110.971 157.03,109.265 156.794,107.5 
	156.5,105.794 156.089,104.088 155.677,102.441 155.147,100.735 154.618,99.088 153.971,97.5 153.324,95.912 152.559,94.324 
	151.736,92.735 150.912,91.265 150.618,90.735 150.618,90.735 147.912,86.912 145.265,83.265 142.794,79.735 140.442,76.324 
	138.147,73.088 135.971,69.971 133.912,67.03 131.971,64.206 131.971,64.206 130.618,62.206 129.324,60.324 128.089,58.5 
	126.912,56.794 125.794,55.088 124.736,53.5 123.736,52.03 122.794,50.559 121.912,49.206 121.089,47.912 120.324,46.735 
	119.618,45.618 118.971,44.559 118.383,43.559 117.853,42.677 117.383,41.853 115.089,37.971 112.324,33.735 111.912,33.206 
	111.383,32.853 110.794,32.618 110.147,32.5 110.147,55.088 111.03,56.5 111.912,57.971 112.912,59.5 113.971,61.147 115.03,62.794 
	116.206,64.559 117.383,66.441 118.677,68.324 118.677,68.324 120.794,71.5 123.03,74.794 125.383,78.265 127.912,81.912 
	130.559,85.735 133.383,89.794 136.324,93.971 139.383,98.324 140.206,99.853 140.971,101.441 141.677,103.03 142.206,104.677 
	142.736,106.324 143.147,108.03 143.442,109.735 143.677,111.441 143.853,113.206 143.912,114.912 143.853,116.677 143.736,118.382 
	143.559,120.088 143.265,121.853 142.853,123.5 142.383,125.206 141.5,127.618 140.5,129.971 139.383,132.03 138.147,134.03 
	136.736,135.912 135.265,137.735 133.618,139.441 131.853,141.03 129.971,142.441 128.03,143.794 126.03,144.971 123.912,145.971 
	121.677,146.853 119.442,147.618 117.147,148.147 114.853,148.559 112.5,148.853 110.147,148.912 110.147,162.382 112.089,162.382 
	113.971,162.265 115.912,162.088 117.794,161.794 119.677,161.441 121.559,161.03 123.442,160.5 125.265,159.912 127.089,159.265 
	128.853,158.559 130.618,157.735 132.324,156.912 133.971,155.971 135.618,154.971 137.206,153.912 138.794,152.735 
	140.736,151.147 142.618,149.441 144.442,147.677 146.147,145.794 147.736,143.794 149.206,141.735 150.618,139.618 
	151.853,137.382 152.971,135.088 154.03,132.794 154.912,130.382 155.618,127.971 156.265,125.5 156.736,122.971 157.089,120.441 
	157.324,117.912 "/>
<path fill="#58A7CE" d="M88.324,64.206c-3.875-0.783-7.792-1.216-11.706-1.294s-7.851,0.177-11.765,0.765
	c-3.875,0.587-7.693,1.512-11.411,2.764c-3.719,1.253-7.321,2.847-10.765,4.765l0,0c0.117,4.343,0.629,8.677,1.529,12.941
	c0.939,4.265,2.298,8.421,4.059,12.412c1.722,3.991,3.829,7.812,6.294,11.412c2.504,3.599,5.321,6.928,8.412,9.941l0,0
	c-0.118-2.311-0.078-4.63,0.118-6.941c0.195-2.311,0.569-4.611,1.117-6.883c0.549-2.232,1.256-4.434,2.118-6.588
	c0.862-2.154,1.884-4.238,3.059-6.235l0,0c0.039-0.039,0.078-0.079,0.117-0.118c0-0.039,0.02-0.098,0.059-0.176
	c0.039-0.04,0.059-0.079,0.059-0.118c0.039-0.039,0.078-0.078,0.118-0.118l0,0C77.108,80.382,83.304,71.539,88.324,64.206
	L88.324,64.206"/>
<path fill="#6DB1CB" d="M157.324,117.912c3.13-3.013,5.947-6.342,8.412-9.941c2.465-3.6,4.592-7.421,6.353-11.412
	c1.721-3.991,3.061-8.147,4-12.412c0.939-4.264,1.451-8.598,1.529-12.941l0,0c-3.444-1.918-7.046-3.512-10.765-4.765
	c-3.718-1.252-7.537-2.177-11.411-2.764c-3.875-0.588-7.812-0.843-11.765-0.765c-3.914,0.078-7.831,0.511-11.706,1.294l0,0
	c5.059,7.333,11.274,16.176,18.647,26.529l0,0c0,0.04,0.02,0.079,0.059,0.118s0.059,0.078,0.059,0.118
	c0.039,0.078,0.078,0.137,0.117,0.176c0,0.039,0.02,0.079,0.059,0.118l0,0c1.175,1.997,2.197,4.081,3.059,6.235
	c0.862,2.154,1.569,4.356,2.118,6.588c0.548,2.272,0.921,4.572,1.117,6.883C157.441,113.282,157.481,115.601,157.324,117.912
	L157.324,117.912"/>
<path fill="#91BDDC" d="M42.677,71.206c3.444-1.918,7.046-3.512,10.765-4.765c3.718-1.252,7.536-2.177,11.411-2.764
	c3.914-0.588,7.851-0.843,11.765-0.765s7.831,0.511,11.706,1.294l0,0c7.765-11.294,12.765-18.941,15-22.941l0,0l2.529-4.294
	l2.118-3.236c0.477-0.77,1.296-1.235,2.176-1.235l0,0c0.881,0,1.7,0.465,2.177,1.235l0,0l2.765,4.236l2.294,3.882
	c2.353,4.157,7.215,11.608,14.588,22.353l0,0c3.875-0.783,7.792-1.216,11.706-1.294c3.953-0.078,7.89,0.177,11.765,0.765
	c3.874,0.587,7.693,1.512,11.411,2.764c3.719,1.253,7.321,2.847,10.765,4.765l0,0c0.156-6.013-0.496-11.986-1.941-17.765
	c-1.445-5.818-3.64-11.414-6.53-16.647c-2.928-5.232-6.527-10.058-10.705-14.353c-4.179-4.256-8.925-7.954-14.118-11
	c-5.154-3.045-10.692-5.379-16.471-6.941c-5.779-1.562-11.731-2.353-17.706-2.353c-5.974,0-11.926,0.791-17.705,2.353
	c-5.779,1.562-11.317,3.896-16.471,6.941c-5.154,3.046-9.881,6.744-14.059,11c-4.217,4.295-7.816,9.121-10.706,14.353
	c-2.928,5.233-5.143,10.829-6.588,16.647C43.173,59.22,42.521,65.193,42.677,71.206L42.677,71.206"/>
<path fill="#0093BD" d="M16.618,164.147c-2.23-3.873-4.082-7.97-5.529-12.235c-1.409-4.265-2.414-8.638-3-13.059
	c-0.548-4.46-0.647-8.971-0.295-13.471c0.313-4.46,1.082-8.872,2.295-13.176c1.212-4.343,2.847-8.539,4.882-12.529
	c2.034-3.991,4.477-7.773,7.294-11.295c2.778-3.521,5.91-6.732,9.353-9.588c3.404-2.895,7.107-5.436,11.059-7.588l0,0
	c-0.118-4.499,0.217-8.991,1-13.412c0.821-4.421,2.062-8.735,3.706-12.882c1.643-4.187,3.692-8.185,6.117-11.941
	c2.426-3.795,5.243-7.321,8.412-10.53c3.13-3.208,6.577-6.084,10.294-8.588c3.678-2.543,7.618-4.69,11.765-6.412
	c4.147-1.76,8.441-3.08,12.823-3.941c4.422-0.9,8.893-1.353,13.353-1.353l0,0c-9.449,0-18.843,1.246-27.941,3.706
	c-9.098,2.421-17.859,6.04-26.059,10.765c-8.16,4.724-15.675,10.499-22.353,17.176c-6.677,6.677-12.451,14.192-17.176,22.353
	S8.274,73.069,5.853,82.206c-2.46,9.098-3.706,18.492-3.706,27.941c0,9.45,1.246,18.843,3.706,27.941
	C8.274,147.225,11.893,155.986,16.618,164.147L16.618,164.147"/>
<path fill="#0093BD" d="M203.677,164.147c-2.23,3.874-4.85,7.518-7.824,10.883c-2.973,3.364-6.263,6.437-9.823,9.176
	c-3.6,2.7-7.441,5.044-11.471,7c-4.03,1.956-8.245,3.493-12.588,4.588c-4.343,1.096-8.795,1.765-13.294,2
	c-4.46,0.235-8.952,0.018-13.412-0.647c-4.421-0.665-8.774-1.768-13-3.294c-4.225-1.526-8.283-3.456-12.118-5.765l0,0
	c-3.834,2.309-7.892,4.239-12.117,5.765c-4.187,1.526-8.54,2.629-13,3.294c-4.421,0.665-8.913,0.882-13.412,0.647
	c-4.46-0.235-8.892-0.904-13.235-2c-4.382-1.095-8.617-2.632-12.647-4.588c-4.03-1.956-7.852-4.3-11.412-7
	c-3.6-2.739-6.909-5.812-9.882-9.176c-2.974-3.365-5.594-7.009-7.824-10.883l0,0c4.725,8.161,10.499,15.676,17.176,22.353
	c6.678,6.677,14.193,12.452,22.353,17.177c8.2,4.724,16.961,8.343,26.059,10.764c9.098,2.46,18.492,3.706,27.941,3.706
	c9.45,0,18.844-1.246,27.942-3.706c9.137-2.421,17.898-6.04,26.058-10.764c8.2-4.725,15.715-10.5,22.353-17.177
	C193.177,179.823,198.952,172.308,203.677,164.147L203.677,164.147"/>
<path fill="#FFFFFF" d="M80.912,98.324c-1.946,3.424-3.299,7.147-4,11c-0.661,3.891-0.661,7.853,0,11.706
	c0.701,3.891,2.054,7.614,4,11c1.985,3.424,4.553,6.47,7.588,9c2.997,2.529,6.421,4.5,10.118,5.823
	c3.697,1.362,7.599,2.059,11.529,2.059c3.931,0,7.833-0.697,11.53-2.059c3.697-1.323,7.141-3.294,10.176-5.823
	c2.997-2.53,5.545-5.576,7.53-9c1.945-3.386,3.299-7.109,4-11c0.7-3.853,0.7-7.815,0-11.706c-0.662-3.853-2.016-7.576-4-11l0,0
	c-8.392-11.883-15.294-21.883-20.706-30l0,0c-3.451-5.177-6.294-9.589-8.53-13.236l0,0c-2.196,3.647-5.039,8.059-8.529,13.236l0,0
	C96.245,76.441,89.343,86.441,80.912,98.324L80.912,98.324"/>
<g>
	<g>
		
			<line fill="none" stroke="#2C82A5" stroke-width="4.294" stroke-linecap="round" stroke-linejoin="round" x1="218.147" y1="110.147" x2="218.147" y2="112.794"/>
		
			<line fill="none" stroke="#2C82A5" stroke-width="4.294" stroke-linecap="round" stroke-linejoin="round" x1="218.147" y1="112.794" x2="218.03" y2="115.441"/>
		
			<line fill="none" stroke="#2C82A5" stroke-width="4.294" stroke-linecap="round" stroke-linejoin="round" x1="218.03" y1="115.441" x2="217.853" y2="118.088"/>
		
			<line fill="none" stroke="#2C82A5" stroke-width="4.294" stroke-linecap="round" stroke-linejoin="round" x1="217.853" y1="118.088" x2="217.618" y2="120.735"/>
		
			<line fill="none" stroke="#2C82A5" stroke-width="4.294" stroke-linecap="round" stroke-linejoin="round" x1="217.618" y1="120.735" x2="217.324" y2="123.382"/>
		
			<line fill="none" stroke="#2C82A5" stroke-width="4.294" stroke-linecap="round" stroke-linejoin="round" x1="217.324" y1="123.382" x2="217.206" y2="124.5"/>
		
			<line fill="none" stroke="#2C82A5" stroke-width="4.294" stroke-linecap="round" stroke-linejoin="round" x1="215.206" y1="135.147" x2="214.912" y2="136.382"/>
		
			<line fill="none" stroke="#2C82A5" stroke-width="4.294" stroke-linecap="round" stroke-linejoin="round" x1="214.912" y1="136.382" x2="214.265" y2="138.971"/>
		
			<line fill="none" stroke="#2C82A5" stroke-width="4.294" stroke-linecap="round" stroke-linejoin="round" x1="214.265" y1="138.971" x2="213.5" y2="141.5"/>
		
			<line fill="none" stroke="#2C82A5" stroke-width="4.294" stroke-linecap="round" stroke-linejoin="round" x1="213.5" y1="141.5" x2="212.736" y2="144.03"/>
		
			<line fill="none" stroke="#2C82A5" stroke-width="4.294" stroke-linecap="round" stroke-linejoin="round" x1="212.736" y1="144.03" x2="211.853" y2="146.559"/>
		
			<line fill="none" stroke="#2C82A5" stroke-width="4.294" stroke-linecap="round" stroke-linejoin="round" x1="211.853" y1="146.559" x2="210.971" y2="148.853"/>
		
			<line fill="none" stroke="#2C82A5" stroke-width="4.294" stroke-linecap="round" stroke-linejoin="round" x1="206.618" y1="158.735" x2="205.383" y2="161.088"/>
		
			<line fill="none" stroke="#2C82A5" stroke-width="4.294" stroke-linecap="round" stroke-linejoin="round" x1="205.383" y1="161.088" x2="204.147" y2="163.382"/>
		
			<line fill="none" stroke="#2C82A5" stroke-width="4.294" stroke-linecap="round" stroke-linejoin="round" x1="204.147" y1="163.382" x2="202.794" y2="165.677"/>
		
			<line fill="none" stroke="#2C82A5" stroke-width="4.294" stroke-linecap="round" stroke-linejoin="round" x1="202.794" y1="165.677" x2="201.383" y2="167.912"/>
		
			<line fill="none" stroke="#2C82A5" stroke-width="4.294" stroke-linecap="round" stroke-linejoin="round" x1="201.383" y1="167.912" x2="199.971" y2="170.147"/>
		
			<line fill="none" stroke="#2C82A5" stroke-width="4.294" stroke-linecap="round" stroke-linejoin="round" x1="199.971" y1="170.147" x2="199.265" y2="171.147"/>
		
			<line fill="none" stroke="#2C82A5" stroke-width="4.294" stroke-linecap="round" stroke-linejoin="round" x1="192.736" y1="179.735" x2="191.912" y2="180.677"/>
		
			<line fill="none" stroke="#2C82A5" stroke-width="4.294" stroke-linecap="round" stroke-linejoin="round" x1="191.912" y1="180.677" x2="190.206" y2="182.677"/>
		
			<line fill="none" stroke="#2C82A5" stroke-width="4.294" stroke-linecap="round" stroke-linejoin="round" x1="190.206" y1="182.677" x2="188.383" y2="184.618"/>
		
			<line fill="none" stroke="#2C82A5" stroke-width="4.294" stroke-linecap="round" stroke-linejoin="round" x1="188.383" y1="184.618" x2="186.5" y2="186.5"/>
		
			<line fill="none" stroke="#2C82A5" stroke-width="4.294" stroke-linecap="round" stroke-linejoin="round" x1="186.5" y1="186.5" x2="184.618" y2="188.382"/>
		
			<line fill="none" stroke="#2C82A5" stroke-width="4.294" stroke-linecap="round" stroke-linejoin="round" x1="184.618" y1="188.382" x2="182.794" y2="190.088"/>
		
			<line fill="none" stroke="#2C82A5" stroke-width="4.294" stroke-linecap="round" stroke-linejoin="round" x1="174.442" y1="196.912" x2="172.324" y2="198.441"/>
		
			<line fill="none" stroke="#2C82A5" stroke-width="4.294" stroke-linecap="round" stroke-linejoin="round" x1="172.324" y1="198.441" x2="170.147" y2="199.971"/>
		
			<line fill="none" stroke="#2C82A5" stroke-width="4.294" stroke-linecap="round" stroke-linejoin="round" x1="170.147" y1="199.971" x2="167.912" y2="201.382"/>
		
			<line fill="none" stroke="#2C82A5" stroke-width="4.294" stroke-linecap="round" stroke-linejoin="round" x1="167.912" y1="201.382" x2="165.677" y2="202.794"/>
		
			<line fill="none" stroke="#2C82A5" stroke-width="4.294" stroke-linecap="round" stroke-linejoin="round" x1="165.677" y1="202.794" x2="163.383" y2="204.088"/>
		
			<line fill="none" stroke="#2C82A5" stroke-width="4.294" stroke-linecap="round" stroke-linejoin="round" x1="163.383" y1="204.088" x2="162.324" y2="204.735"/>
		
			<line fill="none" stroke="#2C82A5" stroke-width="4.294" stroke-linecap="round" stroke-linejoin="round" x1="152.618" y1="209.441" x2="151.5" y2="209.912"/>
		
			<line fill="none" stroke="#2C82A5" stroke-width="4.294" stroke-linecap="round" stroke-linejoin="round" x1="151.5" y1="209.912" x2="149.03" y2="210.912"/>
		
			<line fill="none" stroke="#2C82A5" stroke-width="4.294" stroke-linecap="round" stroke-linejoin="round" x1="149.03" y1="210.912" x2="146.559" y2="211.853"/>
		
			<line fill="none" stroke="#2C82A5" stroke-width="4.294" stroke-linecap="round" stroke-linejoin="round" x1="146.559" y1="211.853" x2="144.03" y2="212.677"/>
		
			<line fill="none" stroke="#2C82A5" stroke-width="4.294" stroke-linecap="round" stroke-linejoin="round" x1="144.03" y1="212.677" x2="141.5" y2="213.5"/>
		
			<line fill="none" stroke="#2C82A5" stroke-width="4.294" stroke-linecap="round" stroke-linejoin="round" x1="141.5" y1="213.5" x2="139.03" y2="214.206"/>
		
			<line fill="none" stroke="#2C82A5" stroke-width="4.294" stroke-linecap="round" stroke-linejoin="round" x1="128.5" y1="216.559" x2="126.03" y2="216.971"/>
		
			<line fill="none" stroke="#2C82A5" stroke-width="4.294" stroke-linecap="round" stroke-linejoin="round" x1="126.03" y1="216.971" x2="123.383" y2="217.324"/>
		
			<line fill="none" stroke="#2C82A5" stroke-width="4.294" stroke-linecap="round" stroke-linejoin="round" x1="123.383" y1="217.324" x2="120.736" y2="217.618"/>
		
			<line fill="none" stroke="#2C82A5" stroke-width="4.294" stroke-linecap="round" stroke-linejoin="round" x1="120.736" y1="217.618" x2="118.089" y2="217.853"/>
		
			<line fill="none" stroke="#2C82A5" stroke-width="4.294" stroke-linecap="round" stroke-linejoin="round" x1="118.089" y1="217.853" x2="115.442" y2="218.03"/>
		
			<line fill="none" stroke="#2C82A5" stroke-width="4.294" stroke-linecap="round" stroke-linejoin="round" x1="115.442" y1="218.03" x2="114.206" y2="218.088"/>
		
			<line fill="none" stroke="#2C82A5" stroke-width="4.294" stroke-linecap="round" stroke-linejoin="round" x1="103.383" y1="217.912" x2="102.206" y2="217.853"/>
		
			<line fill="none" stroke="#2C82A5" stroke-width="4.294" stroke-linecap="round" stroke-linejoin="round" x1="102.206" y1="217.853" x2="99.559" y2="217.618"/>
		
			<line fill="none" stroke="#2C82A5" stroke-width="4.294" stroke-linecap="round" stroke-linejoin="round" x1="99.559" y1="217.618" x2="96.912" y2="217.324"/>
		
			<line fill="none" stroke="#2C82A5" stroke-width="4.294" stroke-linecap="round" stroke-linejoin="round" x1="96.912" y1="217.324" x2="94.324" y2="216.971"/>
		
			<line fill="none" stroke="#2C82A5" stroke-width="4.294" stroke-linecap="round" stroke-linejoin="round" x1="94.324" y1="216.971" x2="91.677" y2="216.559"/>
		
			<line fill="none" stroke="#2C82A5" stroke-width="4.294" stroke-linecap="round" stroke-linejoin="round" x1="91.677" y1="216.559" x2="89.147" y2="216.088"/>
		
			<line fill="none" stroke="#2C82A5" stroke-width="4.294" stroke-linecap="round" stroke-linejoin="round" x1="78.677" y1="213.441" x2="76.265" y2="212.677"/>
		
			<line fill="none" stroke="#2C82A5" stroke-width="4.294" stroke-linecap="round" stroke-linejoin="round" x1="76.265" y1="212.677" x2="73.794" y2="211.853"/>
		
			<line fill="none" stroke="#2C82A5" stroke-width="4.294" stroke-linecap="round" stroke-linejoin="round" x1="73.794" y1="211.853" x2="71.265" y2="210.912"/>
		
			<line fill="none" stroke="#2C82A5" stroke-width="4.294" stroke-linecap="round" stroke-linejoin="round" x1="71.265" y1="210.912" x2="68.853" y2="209.912"/>
		
			<line fill="none" stroke="#2C82A5" stroke-width="4.294" stroke-linecap="round" stroke-linejoin="round" x1="68.853" y1="209.912" x2="66.383" y2="208.912"/>
		
			<line fill="none" stroke="#2C82A5" stroke-width="4.294" stroke-linecap="round" stroke-linejoin="round" x1="66.383" y1="208.912" x2="65.206" y2="208.324"/>
		
			<line fill="none" stroke="#2C82A5" stroke-width="4.294" stroke-linecap="round" stroke-linejoin="round" x1="55.618" y1="203.382" x2="54.618" y2="202.794"/>
		
			<line fill="none" stroke="#2C82A5" stroke-width="4.294" stroke-linecap="round" stroke-linejoin="round" x1="54.618" y1="202.794" x2="52.383" y2="201.382"/>
		
			<line fill="none" stroke="#2C82A5" stroke-width="4.294" stroke-linecap="round" stroke-linejoin="round" x1="52.383" y1="201.382" x2="50.147" y2="199.971"/>
		
			<line fill="none" stroke="#2C82A5" stroke-width="4.294" stroke-linecap="round" stroke-linejoin="round" x1="50.147" y1="199.971" x2="47.971" y2="198.441"/>
		
			<line fill="none" stroke="#2C82A5" stroke-width="4.294" stroke-linecap="round" stroke-linejoin="round" x1="47.971" y1="198.441" x2="45.794" y2="196.912"/>
		
			<line fill="none" stroke="#2C82A5" stroke-width="4.294" stroke-linecap="round" stroke-linejoin="round" x1="45.794" y1="196.912" x2="43.736" y2="195.324"/>
		
			<line fill="none" stroke="#2C82A5" stroke-width="4.294" stroke-linecap="round" stroke-linejoin="round" x1="35.559" y1="188.265" x2="33.794" y2="186.5"/>
		
			<line fill="none" stroke="#2C82A5" stroke-width="4.294" stroke-linecap="round" stroke-linejoin="round" x1="33.794" y1="186.5" x2="31.912" y2="184.618"/>
		
			<line fill="none" stroke="#2C82A5" stroke-width="4.294" stroke-linecap="round" stroke-linejoin="round" x1="31.912" y1="184.618" x2="30.147" y2="182.677"/>
		
			<line fill="none" stroke="#2C82A5" stroke-width="4.294" stroke-linecap="round" stroke-linejoin="round" x1="30.147" y1="182.677" x2="28.383" y2="180.677"/>
		
			<line fill="none" stroke="#2C82A5" stroke-width="4.294" stroke-linecap="round" stroke-linejoin="round" x1="28.383" y1="180.677" x2="26.677" y2="178.677"/>
		
			<line fill="none" stroke="#2C82A5" stroke-width="4.294" stroke-linecap="round" stroke-linejoin="round" x1="26.677" y1="178.677" x2="25.853" y2="177.618"/>
		
			<line fill="none" stroke="#2C82A5" stroke-width="4.294" stroke-linecap="round" stroke-linejoin="round" x1="19.5" y1="168.853" x2="18.912" y2="167.912"/>
		
			<line fill="none" stroke="#2C82A5" stroke-width="4.294" stroke-linecap="round" stroke-linejoin="round" x1="18.912" y1="167.912" x2="17.5" y2="165.677"/>
		
			<line fill="none" stroke="#2C82A5" stroke-width="4.294" stroke-linecap="round" stroke-linejoin="round" x1="17.5" y1="165.677" x2="16.206" y2="163.382"/>
		
			<line fill="none" stroke="#2C82A5" stroke-width="4.294" stroke-linecap="round" stroke-linejoin="round" x1="16.206" y1="163.382" x2="14.912" y2="161.088"/>
		
			<line fill="none" stroke="#2C82A5" stroke-width="4.294" stroke-linecap="round" stroke-linejoin="round" x1="14.912" y1="161.088" x2="13.677" y2="158.677"/>
		
			<line fill="none" stroke="#2C82A5" stroke-width="4.294" stroke-linecap="round" stroke-linejoin="round" x1="13.677" y1="158.677" x2="12.5" y2="156.324"/>
		
			<line fill="none" stroke="#2C82A5" stroke-width="4.294" stroke-linecap="round" stroke-linejoin="round" x1="12.5" y1="156.324" x2="12.5" y2="156.324"/>
		
			<line fill="none" stroke="#2C82A5" stroke-width="4.294" stroke-linecap="round" stroke-linejoin="round" x1="8.383" y1="146.324" x2="7.618" y2="144.03"/>
		
			<line fill="none" stroke="#2C82A5" stroke-width="4.294" stroke-linecap="round" stroke-linejoin="round" x1="7.618" y1="144.03" x2="6.794" y2="141.5"/>
		
			<line fill="none" stroke="#2C82A5" stroke-width="4.294" stroke-linecap="round" stroke-linejoin="round" x1="6.794" y1="141.5" x2="6.089" y2="138.971"/>
		
			<line fill="none" stroke="#2C82A5" stroke-width="4.294" stroke-linecap="round" stroke-linejoin="round" x1="6.089" y1="138.971" x2="5.383" y2="136.382"/>
		
			<line fill="none" stroke="#2C82A5" stroke-width="4.294" stroke-linecap="round" stroke-linejoin="round" x1="5.383" y1="136.382" x2="4.794" y2="133.794"/>
		
			<line fill="none" stroke="#2C82A5" stroke-width="4.294" stroke-linecap="round" stroke-linejoin="round" x1="4.794" y1="133.794" x2="4.5" y2="132.441"/>
		
			<line fill="none" stroke="#2C82A5" stroke-width="4.294" stroke-linecap="round" stroke-linejoin="round" x1="2.794" y1="121.794" x2="2.677" y2="120.735"/>
		
			<line fill="none" stroke="#2C82A5" stroke-width="4.294" stroke-linecap="round" stroke-linejoin="round" x1="2.677" y1="120.735" x2="2.442" y2="118.088"/>
		
			<line fill="none" stroke="#2C82A5" stroke-width="4.294" stroke-linecap="round" stroke-linejoin="round" x1="2.442" y1="118.088" x2="2.265" y2="115.441"/>
		
			<line fill="none" stroke="#2C82A5" stroke-width="4.294" stroke-linecap="round" stroke-linejoin="round" x1="2.265" y1="115.441" x2="2.206" y2="112.794"/>
		
			<line fill="none" stroke="#2C82A5" stroke-width="4.294" stroke-linecap="round" stroke-linejoin="round" x1="2.206" y1="112.794" x2="2.147" y2="110.147"/>
		
			<line fill="none" stroke="#2C82A5" stroke-width="4.294" stroke-linecap="round" stroke-linejoin="round" x1="2.147" y1="110.147" x2="2.206" y2="107.5"/>
		
			<line fill="none" stroke="#2C82A5" stroke-width="4.294" stroke-linecap="round" stroke-linejoin="round" x1="2.206" y1="107.5" x2="2.206" y2="107.441"/>
		
			<line fill="none" stroke="#2C82A5" stroke-width="4.294" stroke-linecap="round" stroke-linejoin="round" x1="3.03" y1="96.677" x2="3.324" y2="94.324"/>
		
			<line fill="none" stroke="#2C82A5" stroke-width="4.294" stroke-linecap="round" stroke-linejoin="round" x1="3.324" y1="94.324" x2="3.736" y2="91.677"/>
		
			<line fill="none" stroke="#2C82A5" stroke-width="4.294" stroke-linecap="round" stroke-linejoin="round" x1="3.736" y1="91.677" x2="4.206" y2="89.088"/>
		
			<line fill="none" stroke="#2C82A5" stroke-width="4.294" stroke-linecap="round" stroke-linejoin="round" x1="4.206" y1="89.088" x2="4.794" y2="86.5"/>
		
			<line fill="none" stroke="#2C82A5" stroke-width="4.294" stroke-linecap="round" stroke-linejoin="round" x1="4.794" y1="86.5" x2="5.383" y2="83.912"/>
		
			<line fill="none" stroke="#2C82A5" stroke-width="4.294" stroke-linecap="round" stroke-linejoin="round" x1="5.383" y1="83.912" x2="5.736" y2="82.559"/>
		
			<line fill="none" stroke="#2C82A5" stroke-width="4.294" stroke-linecap="round" stroke-linejoin="round" x1="9.03" y1="72.265" x2="9.383" y2="71.265"/>
		
			<line fill="none" stroke="#2C82A5" stroke-width="4.294" stroke-linecap="round" stroke-linejoin="round" x1="9.383" y1="71.265" x2="10.383" y2="68.794"/>
		
			<line fill="none" stroke="#2C82A5" stroke-width="4.294" stroke-linecap="round" stroke-linejoin="round" x1="10.383" y1="68.794" x2="11.442" y2="66.382"/>
		
			<line fill="none" stroke="#2C82A5" stroke-width="4.294" stroke-linecap="round" stroke-linejoin="round" x1="11.442" y1="66.382" x2="12.5" y2="63.971"/>
		
			<line fill="none" stroke="#2C82A5" stroke-width="4.294" stroke-linecap="round" stroke-linejoin="round" x1="12.5" y1="63.971" x2="13.677" y2="61.618"/>
		
			<line fill="none" stroke="#2C82A5" stroke-width="4.294" stroke-linecap="round" stroke-linejoin="round" x1="13.677" y1="61.618" x2="14.912" y2="59.265"/>
		
			<line fill="none" stroke="#2C82A5" stroke-width="4.294" stroke-linecap="round" stroke-linejoin="round" x1="14.912" y1="59.265" x2="14.971" y2="59.147"/>
		
			<line fill="none" stroke="#2C82A5" stroke-width="4.294" stroke-linecap="round" stroke-linejoin="round" x1="20.5" y1="49.912" x2="21.853" y2="47.971"/>
		
			<line fill="none" stroke="#2C82A5" stroke-width="4.294" stroke-linecap="round" stroke-linejoin="round" x1="21.853" y1="47.971" x2="23.383" y2="45.794"/>
		
			<line fill="none" stroke="#2C82A5" stroke-width="4.294" stroke-linecap="round" stroke-linejoin="round" x1="23.383" y1="45.794" x2="25.03" y2="43.677"/>
		
			<line fill="none" stroke="#2C82A5" stroke-width="4.294" stroke-linecap="round" stroke-linejoin="round" x1="25.03" y1="43.677" x2="26.677" y2="41.618"/>
		
			<line fill="none" stroke="#2C82A5" stroke-width="4.294" stroke-linecap="round" stroke-linejoin="round" x1="26.677" y1="41.618" x2="28.383" y2="39.618"/>
		
			<line fill="none" stroke="#2C82A5" stroke-width="4.294" stroke-linecap="round" stroke-linejoin="round" x1="28.383" y1="39.618" x2="29.324" y2="38.5"/>
		
			<line fill="none" stroke="#2C82A5" stroke-width="4.294" stroke-linecap="round" stroke-linejoin="round" x1="36.912" y1="30.794" x2="37.618" y2="30.147"/>
		
			<line fill="none" stroke="#2C82A5" stroke-width="4.294" stroke-linecap="round" stroke-linejoin="round" x1="37.618" y1="30.147" x2="39.618" y2="28.382"/>
		
			<line fill="none" stroke="#2C82A5" stroke-width="4.294" stroke-linecap="round" stroke-linejoin="round" x1="39.618" y1="28.382" x2="41.618" y2="26.677"/>
		
			<line fill="none" stroke="#2C82A5" stroke-width="4.294" stroke-linecap="round" stroke-linejoin="round" x1="41.618" y1="26.677" x2="43.736" y2="25.03"/>
		
			<line fill="none" stroke="#2C82A5" stroke-width="4.294" stroke-linecap="round" stroke-linejoin="round" x1="43.736" y1="25.03" x2="45.794" y2="23.382"/>
		
			<line fill="none" stroke="#2C82A5" stroke-width="4.294" stroke-linecap="round" stroke-linejoin="round" x1="45.794" y1="23.382" x2="47.971" y2="21.853"/>
		
			<line fill="none" stroke="#2C82A5" stroke-width="4.294" stroke-linecap="round" stroke-linejoin="round" x1="47.971" y1="21.853" x2="48.089" y2="21.794"/>
		
			<line fill="none" stroke="#2C82A5" stroke-width="4.294" stroke-linecap="round" stroke-linejoin="round" x1="57.206" y1="16.03" x2="59.265" y2="14.912"/>
		
			<line fill="none" stroke="#2C82A5" stroke-width="4.294" stroke-linecap="round" stroke-linejoin="round" x1="59.265" y1="14.912" x2="61.618" y2="13.677"/>
		
			<line fill="none" stroke="#2C82A5" stroke-width="4.294" stroke-linecap="round" stroke-linejoin="round" x1="61.618" y1="13.677" x2="63.971" y2="12.5"/>
		
			<line fill="none" stroke="#2C82A5" stroke-width="4.294" stroke-linecap="round" stroke-linejoin="round" x1="63.971" y1="12.5" x2="66.383" y2="11.441"/>
		
			<line fill="none" stroke="#2C82A5" stroke-width="4.294" stroke-linecap="round" stroke-linejoin="round" x1="66.383" y1="11.441" x2="68.853" y2="10.382"/>
		
			<line fill="none" stroke="#2C82A5" stroke-width="4.294" stroke-linecap="round" stroke-linejoin="round" x1="68.853" y1="10.382" x2="70.206" y2="9.794"/>
		
			<line fill="none" stroke="#2C82A5" stroke-width="4.294" stroke-linecap="round" stroke-linejoin="round" x1="80.442" y1="6.324" x2="81.324" y2="6.088"/>
		
			<line fill="none" stroke="#2C82A5" stroke-width="4.294" stroke-linecap="round" stroke-linejoin="round" x1="81.324" y1="6.088" x2="83.912" y2="5.382"/>
		
			<line fill="none" stroke="#2C82A5" stroke-width="4.294" stroke-linecap="round" stroke-linejoin="round" x1="83.912" y1="5.382" x2="86.5" y2="4.794"/>
		
			<line fill="none" stroke="#2C82A5" stroke-width="4.294" stroke-linecap="round" stroke-linejoin="round" x1="86.5" y1="4.794" x2="89.089" y2="4.206"/>
		
			<line fill="none" stroke="#2C82A5" stroke-width="4.294" stroke-linecap="round" stroke-linejoin="round" x1="89.089" y1="4.206" x2="91.677" y2="3.735"/>
		
			<line fill="none" stroke="#2C82A5" stroke-width="4.294" stroke-linecap="round" stroke-linejoin="round" x1="91.677" y1="3.735" x2="94.324" y2="3.324"/>
		
			<line fill="none" stroke="#2C82A5" stroke-width="4.294" stroke-linecap="round" stroke-linejoin="round" x1="94.324" y1="3.324" x2="94.5" y2="3.265"/>
		
			<line fill="none" stroke="#2C82A5" stroke-width="4.294" stroke-linecap="round" stroke-linejoin="round" x1="105.206" y1="2.265" x2="107.5" y2="2.206"/>
		
			<line fill="none" stroke="#2C82A5" stroke-width="4.294" stroke-linecap="round" stroke-linejoin="round" x1="107.5" y1="2.206" x2="110.147" y2="2.147"/>
		
			<line fill="none" stroke="#2C82A5" stroke-width="4.294" stroke-linecap="round" stroke-linejoin="round" x1="110.147" y1="2.147" x2="112.794" y2="2.206"/>
		
			<line fill="none" stroke="#2C82A5" stroke-width="4.294" stroke-linecap="round" stroke-linejoin="round" x1="112.794" y1="2.206" x2="115.442" y2="2.265"/>
		
			<line fill="none" stroke="#2C82A5" stroke-width="4.294" stroke-linecap="round" stroke-linejoin="round" x1="115.442" y1="2.265" x2="118.089" y2="2.441"/>
		
			<line fill="none" stroke="#2C82A5" stroke-width="4.294" stroke-linecap="round" stroke-linejoin="round" x1="118.089" y1="2.441" x2="119.618" y2="2.559"/>
		
			<line fill="none" stroke="#2C82A5" stroke-width="4.294" stroke-linecap="round" stroke-linejoin="round" x1="130.324" y1="4.03" x2="131.206" y2="4.206"/>
		
			<line fill="none" stroke="#2C82A5" stroke-width="4.294" stroke-linecap="round" stroke-linejoin="round" x1="131.206" y1="4.206" x2="133.794" y2="4.794"/>
		
			<line fill="none" stroke="#2C82A5" stroke-width="4.294" stroke-linecap="round" stroke-linejoin="round" x1="133.794" y1="4.794" x2="136.383" y2="5.382"/>
		
			<line fill="none" stroke="#2C82A5" stroke-width="4.294" stroke-linecap="round" stroke-linejoin="round" x1="136.383" y1="5.382" x2="138.971" y2="6.088"/>
		
			<line fill="none" stroke="#2C82A5" stroke-width="4.294" stroke-linecap="round" stroke-linejoin="round" x1="138.971" y1="6.088" x2="141.5" y2="6.794"/>
		
			<line fill="none" stroke="#2C82A5" stroke-width="4.294" stroke-linecap="round" stroke-linejoin="round" x1="141.5" y1="6.794" x2="144.03" y2="7.618"/>
		
			<line fill="none" stroke="#2C82A5" stroke-width="4.294" stroke-linecap="round" stroke-linejoin="round" x1="144.03" y1="7.618" x2="144.265" y2="7.677"/>
		
			<line fill="none" stroke="#2C82A5" stroke-width="4.294" stroke-linecap="round" stroke-linejoin="round" x1="154.324" y1="11.559" x2="156.324" y2="12.5"/>
		
			<line fill="none" stroke="#2C82A5" stroke-width="4.294" stroke-linecap="round" stroke-linejoin="round" x1="156.324" y1="12.5" x2="158.736" y2="13.677"/>
		
			<line fill="none" stroke="#2C82A5" stroke-width="4.294" stroke-linecap="round" stroke-linejoin="round" x1="158.736" y1="13.677" x2="161.089" y2="14.912"/>
		
			<line fill="none" stroke="#2C82A5" stroke-width="4.294" stroke-linecap="round" stroke-linejoin="round" x1="161.089" y1="14.912" x2="163.383" y2="16.206"/>
		
			<line fill="none" stroke="#2C82A5" stroke-width="4.294" stroke-linecap="round" stroke-linejoin="round" x1="163.383" y1="16.206" x2="165.677" y2="17.5"/>
		
			<line fill="none" stroke="#2C82A5" stroke-width="4.294" stroke-linecap="round" stroke-linejoin="round" x1="165.677" y1="17.5" x2="167.03" y2="18.324"/>
		
			<line fill="none" stroke="#2C82A5" stroke-width="4.294" stroke-linecap="round" stroke-linejoin="round" x1="175.912" y1="24.441" x2="176.618" y2="25.03"/>
		
			<line fill="none" stroke="#2C82A5" stroke-width="4.294" stroke-linecap="round" stroke-linejoin="round" x1="176.618" y1="25.03" x2="178.677" y2="26.677"/>
		
			<line fill="none" stroke="#2C82A5" stroke-width="4.294" stroke-linecap="round" stroke-linejoin="round" x1="178.677" y1="26.677" x2="180.677" y2="28.382"/>
		
			<line fill="none" stroke="#2C82A5" stroke-width="4.294" stroke-linecap="round" stroke-linejoin="round" x1="180.677" y1="28.382" x2="182.677" y2="30.147"/>
		
			<line fill="none" stroke="#2C82A5" stroke-width="4.294" stroke-linecap="round" stroke-linejoin="round" x1="182.677" y1="30.147" x2="184.618" y2="31.912"/>
		
			<line fill="none" stroke="#2C82A5" stroke-width="4.294" stroke-linecap="round" stroke-linejoin="round" x1="184.618" y1="31.912" x2="186.5" y2="33.794"/>
		
			<line fill="none" stroke="#2C82A5" stroke-width="4.294" stroke-linecap="round" stroke-linejoin="round" x1="186.5" y1="33.794" x2="186.677" y2="33.971"/>
		
			<line fill="none" stroke="#2C82A5" stroke-width="4.294" stroke-linecap="round" stroke-linejoin="round" x1="193.912" y1="41.971" x2="195.324" y2="43.677"/>
		
			<line fill="none" stroke="#2C82A5" stroke-width="4.294" stroke-linecap="round" stroke-linejoin="round" x1="195.324" y1="43.677" x2="196.912" y2="45.794"/>
		
			<line fill="none" stroke="#2C82A5" stroke-width="4.294" stroke-linecap="round" stroke-linejoin="round" x1="196.912" y1="45.794" x2="198.442" y2="47.971"/>
		
			<line fill="none" stroke="#2C82A5" stroke-width="4.294" stroke-linecap="round" stroke-linejoin="round" x1="198.442" y1="47.971" x2="199.971" y2="50.147"/>
		
			<line fill="none" stroke="#2C82A5" stroke-width="4.294" stroke-linecap="round" stroke-linejoin="round" x1="199.971" y1="50.147" x2="201.383" y2="52.382"/>
		
			<line fill="none" stroke="#2C82A5" stroke-width="4.294" stroke-linecap="round" stroke-linejoin="round" x1="201.383" y1="52.382" x2="202.265" y2="53.735"/>
		
			<line fill="none" stroke="#2C82A5" stroke-width="4.294" stroke-linecap="round" stroke-linejoin="round" x1="207.442" y1="63.206" x2="207.794" y2="63.971"/>
		
			<line fill="none" stroke="#2C82A5" stroke-width="4.294" stroke-linecap="round" stroke-linejoin="round" x1="207.794" y1="63.971" x2="208.912" y2="66.382"/>
		
			<line fill="none" stroke="#2C82A5" stroke-width="4.294" stroke-linecap="round" stroke-linejoin="round" x1="208.912" y1="66.382" x2="209.912" y2="68.794"/>
		
			<line fill="none" stroke="#2C82A5" stroke-width="4.294" stroke-linecap="round" stroke-linejoin="round" x1="209.912" y1="68.794" x2="210.912" y2="71.265"/>
		
			<line fill="none" stroke="#2C82A5" stroke-width="4.294" stroke-linecap="round" stroke-linejoin="round" x1="210.912" y1="71.265" x2="211.853" y2="73.735"/>
		
			<line fill="none" stroke="#2C82A5" stroke-width="4.294" stroke-linecap="round" stroke-linejoin="round" x1="211.853" y1="73.735" x2="212.736" y2="76.265"/>
		
			<line fill="none" stroke="#2C82A5" stroke-width="4.294" stroke-linecap="round" stroke-linejoin="round" x1="212.736" y1="76.265" x2="212.794" y2="76.559"/>
		
			<line fill="none" stroke="#2C82A5" stroke-width="4.294" stroke-linecap="round" stroke-linejoin="round" x1="215.618" y1="86.971" x2="216.089" y2="89.088"/>
		
			<line fill="none" stroke="#2C82A5" stroke-width="4.294" stroke-linecap="round" stroke-linejoin="round" x1="216.089" y1="89.088" x2="216.559" y2="91.677"/>
		
			<line fill="none" stroke="#2C82A5" stroke-width="4.294" stroke-linecap="round" stroke-linejoin="round" x1="216.559" y1="91.677" x2="216.971" y2="94.324"/>
		
			<line fill="none" stroke="#2C82A5" stroke-width="4.294" stroke-linecap="round" stroke-linejoin="round" x1="216.971" y1="94.324" x2="217.324" y2="96.912"/>
		
			<line fill="none" stroke="#2C82A5" stroke-width="4.294" stroke-linecap="round" stroke-linejoin="round" x1="217.324" y1="96.912" x2="217.618" y2="99.559"/>
		
			<line fill="none" stroke="#2C82A5" stroke-width="4.294" stroke-linecap="round" stroke-linejoin="round" x1="217.618" y1="99.559" x2="217.794" y2="101.206"/>
	</g>
</g>
</svg>
